<?xml version="1.0" encoding="UTF-8" standalone="no"?>
<!-- Created with Inkscape (http://www.inkscape.org/) -->

<svg
   xmlns:dc="http://purl.org/dc/elements/1.1/"
   xmlns:cc="http://creativecommons.org/ns#"
   xmlns:rdf="http://www.w3.org/1999/02/22-rdf-syntax-ns#"
   xmlns:svg="http://www.w3.org/2000/svg"
   xmlns="http://www.w3.org/2000/svg"
   xmlns:sodipodi="http://sodipodi.sourceforge.net/DTD/sodipodi-0.dtd"
   xmlns:inkscape="http://www.inkscape.org/namespaces/inkscape"
   width="1024"
   height="1024"
   viewBox="0 0 270.93333 270.93334"
   version="1.1"
   id="svg8"
   inkscape:version="0.92.2 (5c3e80d, 2017-08-06)"
   sodipodi:docname="map.svg"
   inkscape:export-filename="F:\git\MySummerMods\AlivieskaGpsClient\resources\map.png"
   inkscape:export-xdpi="192"
   inkscape:export-ydpi="192">
  <defs
     id="defs2">
    <inkscape:path-effect
       effect="bspline"
       id="path-effect4653"
       is_visible="true"
       weight="33.333333"
       steps="2"
       helper_size="0"
       apply_no_weight="true"
       apply_with_weight="true"
       only_selected="false" />
    <inkscape:path-effect
       effect="bspline"
       id="path-effect4649"
       is_visible="true"
       weight="33.333333"
       steps="2"
       helper_size="0"
       apply_no_weight="true"
       apply_with_weight="true"
       only_selected="false" />
    <inkscape:path-effect
       effect="bspline"
       id="path-effect4645"
       is_visible="true"
       weight="33.333333"
       steps="2"
       helper_size="0"
       apply_no_weight="true"
       apply_with_weight="true"
       only_selected="false" />
    <inkscape:path-effect
       effect="bspline"
       id="path-effect4641"
       is_visible="true"
       weight="33.333333"
       steps="2"
       helper_size="0"
       apply_no_weight="true"
       apply_with_weight="true"
       only_selected="false" />
    <inkscape:path-effect
       effect="bspline"
       id="path-effect4637"
       is_visible="true"
       weight="33.333333"
       steps="2"
       helper_size="0"
       apply_no_weight="true"
       apply_with_weight="true"
       only_selected="false" />
    <inkscape:path-effect
       effect="bspline"
       id="path-effect4633"
       is_visible="true"
       weight="33.333333"
       steps="2"
       helper_size="0"
       apply_no_weight="true"
       apply_with_weight="true"
       only_selected="false" />
    <inkscape:path-effect
       effect="bspline"
       id="path-effect4629"
       is_visible="true"
       weight="33.333333"
       steps="2"
       helper_size="0"
       apply_no_weight="true"
       apply_with_weight="true"
       only_selected="false" />
    <inkscape:path-effect
       effect="bspline"
       id="path-effect4614"
       is_visible="true"
       weight="33.333333"
       steps="2"
       helper_size="0"
       apply_no_weight="true"
       apply_with_weight="true"
       only_selected="false" />
    <inkscape:path-effect
       effect="bspline"
       id="path-effect4609"
       is_visible="true"
       weight="33.333333"
       steps="2"
       helper_size="0"
       apply_no_weight="true"
       apply_with_weight="true"
       only_selected="false" />
    <inkscape:path-effect
       effect="bspline"
       id="path-effect4605"
       is_visible="true"
       weight="33.333333"
       steps="2"
       helper_size="0"
       apply_no_weight="true"
       apply_with_weight="true"
       only_selected="false" />
    <inkscape:path-effect
       effect="bspline"
       id="path-effect4593"
       is_visible="true"
       weight="33.333333"
       steps="2"
       helper_size="0"
       apply_no_weight="true"
       apply_with_weight="true"
       only_selected="false" />
    <inkscape:path-effect
       effect="bspline"
       id="path-effect4585"
       is_visible="true"
       weight="33.333333"
       steps="2"
       helper_size="0"
       apply_no_weight="true"
       apply_with_weight="true"
       only_selected="false" />
    <inkscape:path-effect
       effect="bspline"
       id="path-effect4581"
       is_visible="true"
       weight="33.333333"
       steps="2"
       helper_size="0"
       apply_no_weight="true"
       apply_with_weight="true"
       only_selected="false" />
    <inkscape:path-effect
       effect="bspline"
       id="path-effect4576"
       is_visible="true"
       weight="33.333333"
       steps="2"
       helper_size="0"
       apply_no_weight="true"
       apply_with_weight="true"
       only_selected="false" />
    <inkscape:path-effect
       effect="bspline"
       id="path-effect4572"
       is_visible="true"
       weight="33.333333"
       steps="2"
       helper_size="0"
       apply_no_weight="true"
       apply_with_weight="true"
       only_selected="false" />
    <inkscape:path-effect
       effect="bspline"
       id="path-effect4568"
       is_visible="true"
       weight="33.333333"
       steps="2"
       helper_size="0"
       apply_no_weight="true"
       apply_with_weight="true"
       only_selected="false" />
    <inkscape:path-effect
       effect="bspline"
       id="path-effect4564"
       is_visible="true"
       weight="33.333333"
       steps="2"
       helper_size="0"
       apply_no_weight="true"
       apply_with_weight="true"
       only_selected="false" />
    <inkscape:path-effect
       effect="bspline"
       id="path-effect4560"
       is_visible="true"
       weight="33.333333"
       steps="2"
       helper_size="0"
       apply_no_weight="true"
       apply_with_weight="true"
       only_selected="false" />
    <inkscape:path-effect
       effect="bspline"
       id="path-effect4556"
       is_visible="true"
       weight="33.333333"
       steps="2"
       helper_size="0"
       apply_no_weight="true"
       apply_with_weight="true"
       only_selected="false" />
    <inkscape:path-effect
       effect="bspline"
       id="path-effect4551"
       is_visible="true"
       weight="33.333333"
       steps="2"
       helper_size="0"
       apply_no_weight="true"
       apply_with_weight="true"
       only_selected="false" />
    <inkscape:path-effect
       effect="bspline"
       id="path-effect4547"
       is_visible="true"
       weight="33.333333"
       steps="2"
       helper_size="0"
       apply_no_weight="true"
       apply_with_weight="true"
       only_selected="false" />
    <inkscape:path-effect
       effect="bspline"
       id="path-effect4531"
       is_visible="true"
       weight="33.333333"
       steps="2"
       helper_size="0"
       apply_no_weight="true"
       apply_with_weight="true"
       only_selected="false" />
    <inkscape:path-effect
       effect="spiro"
       id="path-effect4525"
       is_visible="true" />
    <inkscape:path-effect
       effect="bspline"
       id="path-effect4521"
       is_visible="true"
       weight="33.333333"
       steps="2"
       helper_size="0"
       apply_no_weight="true"
       apply_with_weight="true"
       only_selected="false" />
    <inkscape:path-effect
       effect="bspline"
       id="path-effect4517"
       is_visible="true"
       weight="33.333333"
       steps="2"
       helper_size="0"
       apply_no_weight="true"
       apply_with_weight="true"
       only_selected="false" />
  </defs>
  <sodipodi:namedview
     id="base"
     pagecolor="#ffffff"
     bordercolor="#666666"
     borderopacity="1.0"
     inkscape:pageopacity="0.0"
     inkscape:pageshadow="2"
     inkscape:zoom="0.5"
     inkscape:cx="683.8146"
     inkscape:cy="329.65091"
     inkscape:document-units="px"
     inkscape:current-layer="layer2"
     showgrid="false"
     units="px"
     inkscape:window-width="1280"
     inkscape:window-height="1002"
     inkscape:window-x="-8"
     inkscape:window-y="-8"
     inkscape:window-maximized="1"
     inkscape:snap-bbox="true"
     inkscape:bbox-nodes="true"
     inkscape:snap-page="true"
     inkscape:snap-bbox-edge-midpoints="false"
     inkscape:snap-global="true"
     inkscape:snap-intersection-paths="true"
     inkscape:measure-start="1024,518.94"
     inkscape:measure-end="1021.36,520.663"
     showguides="true"
     inkscape:guide-bbox="true" />
  <metadata
     id="metadata5">
    <rdf:RDF>
      <cc:Work
         rdf:about="">
        <dc:format>image/svg+xml</dc:format>
        <dc:type
           rdf:resource="http://purl.org/dc/dcmitype/StillImage" />
        <dc:title />
      </cc:Work>
    </rdf:RDF>
  </metadata>
  <g
     inkscape:groupmode="layer"
     id="layer2"
     inkscape:label="Terrain"
     style="display:inline">
    <path
       style="display:inline;fill:#d8d67b;fill-opacity:1;fill-rule:evenodd;stroke:#000000;stroke-width:1.00157475;stroke-linecap:butt;stroke-linejoin:miter;stroke-miterlimit:4;stroke-dasharray:none;stroke-opacity:1"
       d="m 161.17578,87.480469 c -1.56315,0.02306 -2.84976,0.100904 -3.80469,0.205078 -7.63942,0.833393 -22.77779,1.249934 -22.5,8.472656 0.2778,7.222727 -0.97265,20.833987 -0.97265,20.833987 l 15.97265,35.41992 c 8.54508,-5.83552 18.30963,-9.58153 29.44727,-10.97266 l 0.41602,-4.16797 6.66796,0.41797 0.55469,-5.83398 20.00195,0.41601 0.55469,5.41797 c 15.64255,20.05411 18.69804,18.19561 28.89063,25.14063 9.51905,-1.6718 17.93155,1.42795 23.89062,5.41601 l 1.94531,38.33594 3.05665,6.38867 38.75195,-10.55468 -6.66797,-43.0586 14.0293,-4.86133 -1.52735,-28.33593 -36.80859,-0.55664 -9.44531,-8.33204 -15.41797,4.02735 c 0,0 -7.50076,1.11036 -30.97461,-16.25195 C 196.69672,89.854848 172.11784,87.319054 161.17578,87.480469 Z m 18.14258,62.154301 -5.83398,13.47265 20.27929,68.06055 20.69531,-15.2793 -6.875,-37.15625 -21.46093,-14.44531 10.07031,-14.02734 z m 418.91797,2.63867 -15.00195,10.41601 3.19531,10.2793 10.69531,5.69531 10.83398,-0.69531 7.77735,-7.63867 z m -441.5586,2.5 -10.14062,7.08398 23.61328,64.16992 9.0293,-25.97265 -16.25196,-0.83399 1.25,-27.64062 z m 257.15625,24.05664 -33.9414,7.60156 4.59765,18.91602 33.05665,-5.30469 z m 328.94922,60.46094 c -1.81013,-0.0644 -3.38203,0.18298 -4.2832,0.20898 l -10.25,39 7.5,6.5 18,-22.25 c 2.03014,-20.26015 -5.53641,-23.26584 -10.9668,-23.45898 z m 105.30274,47.90429 -6.89453,13.61133 0.44336,4.68359 -7.60157,18.47461 7.95508,7.42383 -5.92187,6.98242 3.44531,9.98829 21.125,-28.37305 6.27539,3.18164 -1.67773,6.80664 -16.5293,12.63867 -0.44141,5.12695 17.23438,3.80079 9.8125,-13.61133 -3.09375,-8.66211 5.65625,-14.4082 -3.53516,-4.50782 0.35352,-4.33008 z m -3.89844,64.36719 -1.5,13.25 1.1875,3.125 7.625,-0.3125 6.9375,-10.875 -0.9375,-2.8125 z M 87.375,398.375 72,401.75 c -1.075967,9.02714 -0.965654,17.78055 -6.125,27.75 2.953296,11.9997 1.172703,23.70348 -1.125,35.375 l 5.5,8.5 c 12.347346,-4.14323 16.10671,4.15036 18,-0.125 l -1.375,-7.125 16.75,-6.75 L 100.5,443.25 89.25,437.375 Z M 45,406.5 l -24,40.625 12.875,9 c -0.555318,6.60185 -0.73819,12.97168 5.5,19.25 l 9,1.625 1.875,-15.5 2.75,-1.375 4.75,4.25 3.375,-55.75 z m 913.86523,45.41016 c -0.91204,-0.0965 -1.37597,1.42759 -2.15039,2.51562 -6.9442,2.5197 -16.15067,4.92572 -31.11132,24.57227 l 1.23632,21.74218 c 10.92084,6.52105 31.45837,17.43181 32.25782,16.97071 7.4914,-11.25562 7.43803,-40.7327 0.1875,-65.6543 -0.15087,-0.086 -0.28963,-0.13269 -0.41993,-0.14648 z M 72.875,513.5 l -13.625,4.125 -1.5,19.5 c 2.760952,22.70041 -1.01984,44.39437 -2.125,66.5 l 8.25,7 8.375,-5.75 5.375,0.75 13.125,-21.375 9.5,-32.75 -7,-24.125 L 88,518 Z m 350.32812,25.07031 c -15.79444,10.14127 -36.064,15.13729 -26.33984,54.625 l 70.00391,207.88867 -12.02149,9.54688 3.71289,7.95508 -5.48047,76.7207 2.47461,6.54102 19.1543,12.21093 47.49219,-50.92578 1.41406,-6.00976 28.46094,-16.44141 39.0664,-13.96484 19.44532,5.12695 21.92187,-6.7168 -12.90625,-38.53711 -18.38476,-2.65234 15.38086,-40.83594 -61.51954,-116.31836 -16.26367,-14.84961 -80.60937,-20.15234 c -4.17634,-12.0779 -9.51762,-22.11832 -17.67774,-27.22461 -0.54958,-24.81248 -9.83342,-22.6286 -17.32422,-25.98633 z M 934.75,543.5 c -17.95223,12.1595 -40.16052,33.4392 -53.75,36.25 -3.90229,9.89764 1.4172,23.25778 -2.25,33 8.11846,4.90159 19.09123,1.81123 30.5,-2.5 l 27.25,-22.5 z m -801.46094,107.32422 3.64844,88.48828 6.75,8.25 -6.6875,5.125 11.75,10.4375 4.125,2.0625 3.25,-1.6875 5,3.1875 9.875,-16.9375 -9.5,-7.5 5,-89.5 z m 791.08985,22.04297 c -0.77745,-0.003 -1.57791,0.0161 -2.40039,0.0547 l -1.50196,16.70507 18.47266,2.38672 c 3.52963,-14.18573 -2.90856,-19.09717 -14.57031,-19.14648 z M 911.25,766.5 908,781.75 l 8.875,14.75 c 7.21587,-0.82851 14.72221,-12.59024 8.25,-26 z m -205.46875,22.91797 -7.95508,1.67969 -1.85547,3.18164 7.42383,28.81445 -8.57422,8.21875 -2.38672,-1.58984 -5.56836,1.67968 -6.71679,-2.29882 -3.00586,8.83984 3.35937,9.98633 20.15235,-7.42383 6.89453,-0.17774 13.61133,1.23829 14.31836,1.85547 6.71875,-10.78321 -6.54102,-4.15429 2.12109,-22.89258 -11.84375,-12.63868 z m 3.28125,60.19141 c -15.54539,-0.2522 -25.26653,6.19345 -32.8125,15.14062 -16.10207,34.64825 -34.06025,55.93285 -52.5,73.75 l 17.75,42 -20.5,3.25 -22.5,0.5 -24,0.75 11.75,31 26.25,6.75 1.20508,1.25 h 301.49804 l 4.29688,-14.5 -1,-9 6.5,-4.25 c 1.27321,-19.64731 4.75074,-38.38695 14,-54.75 L 914.375,886.875 900.75,891 874,893.5 l -44.5,1.75 -38.5,3 L 779,857 746.93945,850.70703 712.25,849.75 c -1.08921,-0.0776 -2.15114,-0.12382 -3.1875,-0.14062 z M 650,852.75 l -8.125,7.125 -4.125,17.75 -10.5,10.375 -12.25,3.5 -1.5,2.9375 2.1875,7.6875 -2.875,4.3125 -11.3125,2.125 c -2.17678,-8.61993 -8.28661,-12.88556 -12,-12.625 -2.54336,0.17839 -2.97644,6.88657 -4.3125,11.25 -1.29959,4.2443 -10.67659,1.1486 -18.9375,3.1875 l -7.75,5.875 -4.0625,-4 -12.1875,10.5 C 534.84092,910.91328 526.0309,903.01237 515.125,901 l -5.1875,17.4375 2.125,2.4375 5.375,-1.8125 8,10.1875 -12.25,8.125 -1.875,4.1875 12.5625,4.375 9.875,7 8.875,2.1875 23.1875,0.25 8.1875,-2.3125 18.4668,-11.04102 7.42578,15.2461 6.98242,-8.3086 0.26562,-7.60156 4.41797,-1.41406 3.53516,13.08008 9.90039,-2.5625 L 619.75,932 l 5.9375,-4.625 6.8125,-16.25 14.9375,-22.4375 13.9375,-19.5625 z"
       transform="scale(0.26458333)"
       id="path4704"
       inkscape:connector-curvature="0" />
    <path
       id="path4758"
       style="display:inline;opacity:1;fill:#bbbe71;fill-opacity:1;fill-rule:evenodd;stroke:#000000;stroke-width:0.26458332px;stroke-linecap:butt;stroke-linejoin:miter;stroke-opacity:1"
       d="m 217.12035,102.69078 c 2.84756,3.06792 5.05131,6.38347 6.10054,10.14306 0.14066,1.8254 0.77511,3.32162 2.57252,4.04253 l 4.48353,4.92453 -0.80851,15.6556 c 5.9705,9.80484 1.96387,9.71056 2.49902,28.07717 0.33892,7.81756 0.45056,13.34862 2.49902,20.35962 1.48674,5.0885 -0.42827,10.17163 -3.38103,13.52409 l -14.00183,5.69629 c -4.95075,-1.01351 -4.50028,-0.0694 -10.84132,-4.37328 -6.35385,0.50692 -12.41072,-0.24831 -18.37512,-1.39651 l -3.08702,-2.86651 c 6.28709,-12.14371 -0.97666,-13.67855 -4.48353,-18.15462 -7.92471,-41.16267 -20.27313,-82.513231 -30.83344,-123.370518 l 4.00578,0.18375 c 0.94002,2.559821 2.69764,4.993859 5.43903,7.276547 19.15945,1.20935 25.05768,-0.698363 25.65166,11.319071 0.59398,12.017434 9.15321,20.20921 15.11077,22.512649 5.95756,2.303439 12.56285,4.866081 17.44993,6.446531 z"
       inkscape:connector-curvature="0"
       inkscape:label="MarshTerrain"
       sodipodi:nodetypes="ccccccccccccccczzzc" />
    <path
       id="path4752"
       style="display:inline;fill:#9d6aa3;fill-opacity:1;fill-rule:evenodd;stroke:#bb00bc;stroke-width:0.26458332px;stroke-linecap:butt;stroke-linejoin:miter;stroke-opacity:1"
       d="m 36.529036,198.96148 -0.975651,1.00872 2.480469,2.69544 1.736328,-0.94258 z m 82.105884,-52.40089 0.70604,-0.6971 0.97594,0.98846 -0.70604,0.6971 z m 4.14828,6.36338 h 0.92604 v 1.68671 h -0.92604 z m -1.37252,-3.42304 h 1.10795 v 1.80248 h -1.10795 z m 118.35143,61.58177 2.34817,-1.5875 0.4961,1.00872 -2.36472,1.55443 z m 3.69657,-27.68855 0.14515,-2.41223 1.8565,0.15772 -0.42095,2.11644 z m 2.87278,-18.27986 0.69574,-0.94129 0.61388,0.56711 -0.74835,1.13423 z m -26.01623,-77.525861 1.02526,-0.8599 1.24024,0.99219 -1.70326,2.08359 z M 18.276224,43.313718 l 3.122042,-1.835806 1.099146,2.022896 -0.888671,0.68989 1.789035,3.203892 -2.478924,1.449938 z m -0.152009,10.079402 0.257246,-2.549083 2.057976,-1.555173 1.087453,2.046282 z m 3.367596,-3.718387 1.216076,-0.853591 0.853592,1.134223 -1.648719,1.145919 z m -1.555175,8.781475 0.08185,-1.578559 1.438244,-0.09355 0.362485,1.88258 z m 2.519874,-5.346297 1.785938,-1.256771 0.562239,0.694531 3.538802,-2.248958 4.795573,2.149739 1.422135,2.348177 -1.289843,1.620573 -1.322917,0.595313 -1.885156,-0.463021 -0.09922,-0.595313 -2.711979,-0.363802 -0.264583,0.396875 -1.289844,-0.165364 -1.521354,1.190625 z"
       inkscape:connector-curvature="0"
       inkscape:label="UrbanTerrain" />
    <path
       style="color:#000000;clip-rule:nonzero;display:inline;overflow:visible;visibility:visible;opacity:1;isolation:auto;mix-blend-mode:normal;color-interpolation:sRGB;color-interpolation-filters:linearRGB;solid-color:#000000;solid-opacity:1;fill:#7abe71;fill-opacity:1;fill-rule:nonzero;stroke:#000000;stroke-width:0.99999994;stroke-linecap:butt;stroke-linejoin:miter;stroke-miterlimit:4;stroke-dasharray:none;stroke-dashoffset:0;stroke-opacity:1;color-rendering:auto;image-rendering:auto;shape-rendering:auto;text-rendering:auto;enable-background:accumulate"
       d="m 221.32422,383.36133 v 40.6582 h 36.41601 v -40.6582 z m 15.82226,408 L 236,794.875 l -68.875,2.875 -13,2.125 -24,16.25 -3.25,-1.125 -12,7 -22,5.625 -2.75,6.375 7.125,9.75 0.875,5.125 12.25,5.625 c 0,0 268.81047,55.65532 269.51758,55.47852 0.70711,-0.17689 16.17578,-0.61914 16.17578,-0.61914 l 11.57812,-15.82032 c 1.80182,-10.00879 -1.0537,-10.09235 -9.89843,-18.03125 -3.43986,-16.38115 1.11222,-24.33557 -37.38867,-36.0625 l -60.19336,-12.72851 4.59765,-24.04102 z m -2.91796,7.24805 11.13671,11.13671 3.53711,21.74414 10.60547,11.13672 -3.53515,3.35938 -8.66211,-0.17774 -45.78516,-11.3125 -11.49023,2.1211 -58.33594,-9.54688 c 0.80828,-7.41796 4.93438,-10.94339 14.04101,-16.97461 7.02246,-4.65086 18.2923,-9.4178 47.83008,-9.54101 z"
       transform="scale(0.26458333)"
       id="path4783"
       inkscape:connector-curvature="0"
       inkscape:label="FieldTerrain" />
    <path
       id="rect4787"
       transform="scale(0.26458333)"
       style="color:#000000;clip-rule:nonzero;display:inline;overflow:visible;visibility:visible;opacity:1;isolation:auto;mix-blend-mode:normal;color-interpolation:sRGB;color-interpolation-filters:linearRGB;solid-color:#000000;solid-opacity:1;fill:#cbc99d;fill-opacity:1;fill-rule:nonzero;stroke:#000000;stroke-width:0.99999994;stroke-linecap:butt;stroke-linejoin:miter;stroke-miterlimit:4;stroke-dasharray:none;stroke-dashoffset:0;stroke-opacity:1;color-rendering:auto;image-rendering:auto;shape-rendering:auto;text-rendering:auto;enable-background:accumulate"
       d="m 112.75,833.33203 -1.63672,8.79492 214.48438,39.89258 -0.57813,3.10547 61.68359,11.47461 2.79102,-15.00781 -61.68359,-11.47266 -0.57813,3.10547 z m 139.875,-54.58202 -2.375,-2.125 -5.625,4.25 -5.20233,-1.33504 1.07733,-7.03998 c 0,0 -8.125,-2.24999 -8.625,-2.62499 -0.5,-0.37493 -4.5,-7.12502 -4.5,-7.12502 l -8.75,-5.12496 -3.25,-10.12502 2.25,-4.625 -0.75,-14.12501 15.21076,-3.81724 10.03924,-9.05776 8.75,-5.87501 7.25,-3.49999 3.375,-4.12498 9.25,-0.50003 10.25,5.75002 9.875,0.75001 14,16.99998 4.5,9 10.5,6.25001 6,7.87499 0.625,19.25 -20.875,27.37501 -7.875,1.50002 -8.625,-2.50001 -5,-5.00001 -8.5,-0.37493 -2.25,-4.49998 z m 62.8125,-72.99999 c -2.63684,-7.32204 -1.35146,-13.34189 1.625,-17.68751 1.12293,-1.63948 3.61906,-1.20291 3.6875,0.0624 0.34526,6.38287 4.84536,12.22216 4.75,15.50003 -0.24624,8.46354 -0.79694,14.7735 6.75,22.375 1.19623,1.20487 30.80612,11.34618 43.09375,19.34373 2.57083,1.67327 4.90549,13.58888 10.15624,20.03127 4.99547,6.12919 13.90197,10.24025 15.40127,18.42474 0.13001,0.70946 0.60586,1.67517 1.09875,2.20026 19.14311,20.39406 27.99152,21.27431 28.1777,36.69902 0.004,0.35717 0.59618,0.83237 0.9473,0.92598 6.1545,1.64081 6.64452,4.55925 6.27715,20.14999 -0.008,0.38237 -0.0151,0.66142 -0.46466,0.7875 -6.56299,1.83734 -7.36183,-0.81358 -13.90696,7.752 -0.19993,0.26192 -0.86301,0.59853 -1.15555,0.43548 -2.64862,-1.47613 -5.05289,-0.71853 -9.69558,1.0139 -1.22733,0.45796 -2.09881,-0.20145 -3.03889,-1.01847 -14.95733,-13.00169 -18.69808,-38.22921 -21.33245,-46.31237 -0.34847,-1.06964 -2.49578,2.03856 -3.44508,-0.21354 -0.94927,-2.25207 0.76067,-5.83711 0.637,-7.71958 -0.15949,-2.42861 -4.35065,-3.52849 -4.76515,-5.92679 -0.2468,-1.4282 2.46697,-2.7578 1.64016,-3.9482 -7.88392,-11.35095 -20.51147,-22.0362 -28.5,-35.87502 -1.52079,-2.63451 -4.88093,-3.63341 -7.375,-5.37497 -2.57405,-1.79743 -5.95285,-3.74435 -6.875,-4.9375 -9.0806,-11.74923 -21.76318,-31.34404 -23.6875,-36.6875 z M 156.97841,209.77308 c 1.43015,4.52985 -1.08265,9.36138 -5.6125,10.79153 -4.52986,1.43014 -9.36138,-1.08267 -10.79153,-5.61251 l -9.52229,-30.16091 c -1.43014,-4.52986 1.08266,-9.36138 5.61251,-10.79153 4.52984,-1.43015 9.36138,1.08266 10.79153,5.61251 z M 92.454211,739.74305 c -2.918011,-13.03359 2.449391,-24.27356 -10.783378,-39.33279 -3.412857,-3.75091 -6.816616,-8.5291 -8.613464,-13.95273 -0.714187,-4.02376 -0.825963,-8.71219 -0.578921,-14.06638 3.888419,-10.3468 14.596237,-11.1109 29.261902,-4.75687 7.67229,3.32409 8.81022,6.99806 9.89414,16.33576 0.65965,5.68274 1.08407,11.45639 1.00396,17.02836 -0.0717,4.98516 -0.42248,9.83384 -3.39045,13.90756 -2.15889,2.96323 -1.29745,9.44701 -4.86136,15.37958 v 6.01039 l -3.53553,6.98268 z"
       inkscape:connector-curvature="0"
       inkscape:label="SpecialTerrain" />
    <path
       style="color:#000000;clip-rule:nonzero;display:inline;overflow:visible;visibility:visible;opacity:1;isolation:auto;mix-blend-mode:normal;color-interpolation:sRGB;color-interpolation-filters:linearRGB;solid-color:#000000;solid-opacity:1;fill:#88bfe2;fill-opacity:1;fill-rule:nonzero;stroke:#0069ee;stroke-width:0.26458332;stroke-linecap:butt;stroke-linejoin:bevel;stroke-miterlimit:4;stroke-dasharray:none;stroke-dashoffset:5.98677158;stroke-opacity:1;color-rendering:auto;image-rendering:auto;shape-rendering:auto;text-rendering:auto;enable-background:accumulate"
       d="m 270.93333,0 h -79.98601 c 6.29109,11.127876 1.58863,16.994677 19.72716,29.699479 2.57818,1.805837 5.75341,4.139583 6.01927,7.276041 0.39961,4.714349 -0.96482,11.713996 -2.57969,17.065625 -1.37927,4.570862 -3.80422,9.474338 -2.57969,14.089062 1.08925,4.104916 2.6175,8.562872 1.52136,13.096875 -1.15116,4.761593 -0.91753,8.670774 -4.0163,11.165726 -2.03367,1.63739 -8.15106,3.362548 -12.38787,3.022555 -3.18805,-0.255833 -5.74551,-2.921465 -8.83947,-3.731731 -1.50174,-0.393287 -3.2835,0.252574 -4.62756,-0.524218 -1.29487,-0.748359 -1.92482,-2.777946 -2.66325,-3.610753 -1.2301,-1.387311 -3.02073,-2.842176 -4.84725,-3.816305 -1.82651,-0.974141 -3.68875,-1.46775 -4.89117,-2.03812 -1.20243,-0.570368 -1.74475,-1.21779 -2.48771,-2.617409 -0.74296,-1.399622 -1.6863,-3.551108 -2.51044,-4.604888 -0.82415,-1.053782 -1.52929,-1.009507 -2.11098,-1.608172 -0.5817,-0.598662 -1.03935,-1.840121 -1.53841,-2.46548 -0.49906,-0.625364 -1.03977,-0.635079 -1.17512,-1.169956 -0.13534,-0.534876 0.1346,-1.594397 0.0434,-2.297017 -0.0912,-0.702619 -0.54382,-1.048321 -1.25626,-1.748729 -0.71245,-0.70041 -1.68433,-1.755516 -2.73936,-2.673223 -1.05503,-0.917707 -2.19307,-1.697879 -3.09336,-2.340943 -0.90029,-0.643062 -1.56276,-1.148747 -2.12958,-2.055688 -0.56682,-0.906942 -1.03771,-2.214774 -1.58699,-3.426664 -0.54927,-1.21189 -1.17698,-2.328061 -1.87016,-3.446301 -0.69319,-1.11824 -1.45179,-2.238981 -2.23863,-2.982248 -0.78684,-0.743265 -1.60232,-1.109494 -2.43086,-1.586982 -0.82854,-0.477488 -1.66979,-1.06563 -2.41742,-1.43402 -0.74763,-0.368393 -1.40118,-0.516816 -2.17299,-0.734841 -0.77181,-0.218022 -1.6609,-0.505812 -2.52853,-0.5364 -0.86763,-0.03059 -1.7134,0.196223 -2.58693,0.501777 -0.87351,0.305557 -1.77335,0.689647 -2.54299,0.814938 -0.76963,0.12529 -1.407,-0.0088 -1.94614,-0.0646 -0.53913,-0.0558 -0.97931,-0.03315 -1.91977,0.853694 -0.94047,0.886844 -2.37791,2.635205 -3.29386,4.046784 -0.91596,1.411576 -1.30833,2.483567 -1.79679,3.783229 -0.48846,1.299665 -1.0722,2.824986 -1.44952,3.809071 -0.37732,0.984086 -0.5475,1.425681 -1.34876,1.963188 -0.80126,0.537503 -2.23199,1.169569 -3.34967,1.388546 -1.11769,0.218975 -1.92018,0.02458 -2.63136,0.281636 -0.71118,0.257051 -1.32958,0.965184 -2.15026,1.663464 -0.82068,0.698281 -1.84199,1.384737 -2.81533,1.719792 -0.97334,0.335058 -1.89692,0.317876 -2.71249,0.915188 -0.81556,0.597316 -1.52119,1.80847 -2.22777,2.127004 -0.70659,0.318532 -1.41264,-0.256817 -2.04484,-0.274402 -0.63219,-0.01759 -1.18968,0.522788 -2.498039,0.911056 -1.308365,0.388263 -3.365561,0.62343 -4.874123,0.688845 -1.508559,0.06542 -2.467149,-0.03909 -3.121255,-0.261482 -0.654105,-0.222396 -1.003181,-0.562372 -1.569932,-1.059368 -0.566748,-0.496993 -1.351544,-1.150871 -2.367295,-1.669664 -1.015754,-0.518792 -2.26246,-0.902485 -3.936712,-1.416968 -1.674252,-0.514482 -3.775366,-1.159581 -5.026565,-1.49965 -1.251204,-0.340069 -1.652259,-0.375102 -2.659787,-0.148312 -1.007528,0.226793 -2.619666,0.7151 -4.032311,1.185973 -1.412647,0.470877 -2.624182,0.923761 -3.500562,1.176674 -0.876379,0.252912 -1.416695,0.305271 -2.105816,0.1788 -0.689118,-0.126471 -1.525794,-0.431565 -2.179711,-0.54932 -0.653915,-0.117755 -1.124649,-0.04789 -2.249991,0.414446 -1.125344,0.462338 -2.902902,1.316426 -4.354774,1.87017 -1.451872,0.553741 -2.576721,0.806456 -3.610115,0.91984 -1.033394,0.113382 -1.974924,0.08749 -3.003952,0.07441 -1.029028,-0.0131 -2.144543,-0.01302 -3.021002,-0.200504 -0.876491,-0.187494 -1.513142,-0.562488 -2.010214,-0.946197 -0.497073,-0.38371 -0.854374,-0.776269 -1.630392,-2.023132 -0.776017,-1.246862 -1.970471,-3.347939 -2.759522,-4.551142 -0.789048,-1.203204 -1.17276,-1.508782 -1.569413,-1.691886 -0.396653,-0.183108 -0.806376,-0.243928 -1.150834,-0.152448 -0.344459,0.09148 -0.623536,0.335513 -0.894001,0.649573 -0.27047,0.314061 -0.531445,0.697312 -0.8847,1.020093 -0.353256,0.322781 -0.797796,0.584071 -1.216465,0.749827 -0.418668,0.165753 -0.811003,0.235249 -1.33015,0.104386 -0.51915,-0.130866 -1.163582,-0.461449 -2.044322,-0.91054 -0.880737,-0.449088 -1.99686,-1.015762 -2.785874,-1.238168 -0.789017,-0.222403 -1.250871,-0.100552 -1.612823,0.06511 -0.36195,0.165661 -0.623615,0.374923 -0.911572,0.715201 -0.287954,0.340278 -0.601239,0.810294 -0.784448,1.316199 -0.183209,0.505904 -0.235339,1.046173 -0.121956,1.626256 0.113383,0.580083 0.391878,1.198731 0.657841,1.87017 0.265965,0.671441 0.519115,1.395098 0.663009,2.166794 0.143894,0.771695 0.178303,1.591271 0.147794,2.415355 -0.03051,0.824087 -0.126387,1.65195 -0.449067,2.977597 -0.322683,1.325647 -0.871706,3.147298 -1.17254,4.171839 -0.300833,1.024549 -0.352955,1.251686 -0.274401,1.631424 0.07855,0.37974 0.287411,0.910682 0.457853,1.336352 0.170441,0.425672 0.302185,0.745 0.294039,1.145151 -0.0081,0.40015 -0.155955,0.880972 -0.03876,1.553392 0.117196,0.67242 0.498762,1.534639 0.696083,2.67529 0.19732,1.14064 0.209806,2.558655 0.209806,4.408516 0,1.849861 -0.01225,4.130847 0.197403,7.725627 0.20964,3.594791 0.641234,8.501711 0.986504,11.886611 0.345268,3.38491 0.604065,5.24679 0.869196,7.06572 0.265131,1.81893 0.536469,3.59438 0.641305,4.98781 0.104834,1.39344 0.04342,2.40447 -0.314192,3.49591 -0.357609,1.09144 -1.011262,2.26245 -1.72651,3.18741 -0.715248,0.92494 -1.491959,1.60299 -1.973006,2.3368 -0.481047,0.7338 -0.665747,1.52273 -0.789099,2.80552 -0.123353,1.28278 -0.185195,3.05775 -0.129708,4.9754 0.05549,1.91764 0.228058,3.97655 0.258899,5.78311 0.03084,1.80656 -0.07994,3.36029 -0.320394,4.76612 -0.240451,1.40583 -0.6102,2.66359 -0.869198,3.88452 -0.258998,1.22092 -0.407303,2.40431 -0.425813,3.7486 -0.01851,1.3443 0.09243,2.84828 0.4439,4.46382 0.351464,1.61554 0.943372,3.3416 1.714107,4.91391 0.770735,1.57232 1.720353,2.98999 2.811715,4.1615 1.091361,1.17151 2.324457,2.09651 3.67471,2.89801 1.350256,0.80151 2.817352,1.47964 4.327903,1.85571 1.510549,0.37606 3.064698,0.45028 4.612122,0.4811 1.547421,0.0308 3.089068,0.0182 4.131013,-0.15451 1.041943,-0.1727 1.58445,-0.50576 2.835484,-1.2268 1.251038,-0.72104 3.212703,-1.83122 4.710825,-2.77451 1.498121,-0.94328 2.534374,-1.72049 4.118612,-2.70061 1.584235,-0.98012 3.718007,-2.16414 5.018815,-3.22461 1.300806,-1.06045 1.769121,-1.99747 2.163691,-2.44739 0.394573,-0.44991 0.715314,-0.4132 0.986504,-0.56121 0.271188,-0.14802 0.493596,-0.48121 1.454693,-1.048 0.961093,-0.56678 2.664089,-1.36881 3.669024,-1.788 1.004938,-0.41919 1.313162,-0.45618 2.107883,-0.4377 0.794721,0.0185 2.078543,0.0926 2.886128,0.20361 0.807585,0.11099 1.140444,0.25856 1.719791,0.70848 0.579348,0.44992 1.406086,1.20251 2.300119,1.83141 0.894032,0.62889 1.855676,1.13459 3.2551,2.32441 1.39942,1.18981 3.236904,3.06446 4.753713,4.14962 1.516808,1.08515 2.713251,1.38075 3.970819,2.15749 1.257564,0.77673 2.576925,2.0346 3.433897,3.1135 0.856972,1.07889 1.251537,1.97923 2.158008,2.99052 0.90647,1.0113 2.324539,2.13342 3.588418,3.67471 1.26386,1.5413 2.37343,3.50184 2.9962,4.53771 0.62276,1.03586 0.75866,1.14701 0.96221,1.19631 0.20356,0.0493 0.47484,0.0368 0.84439,0.27698 0.36955,0.2402 0.83863,0.73418 1.44901,1.42472 0.61038,0.69053 1.36255,1.57803 1.7818,2.33629 0.41925,0.75826 0.50546,1.38727 1.08521,2.38642 0.57975,0.99914 1.652,2.36726 2.61999,3.6127 0.96799,1.24544 1.83119,2.36745 2.41691,3.545 0.58572,1.17756 0.89424,2.41076 1.21491,3.15691 0.32067,0.74616 0.65343,1.00518 1.5658,2.23811 0.91238,1.23294 2.40474,3.44024 3.52071,4.98781 1.11599,1.54757 1.85576,2.43564 2.94711,3.44682 1.09134,1.01119 2.53389,2.14552 4.08761,3.1135 1.55373,0.96799 3.21824,1.76934 4.5315,2.2934 1.31325,0.52405 2.27539,0.7711 3.34812,0.86972 1.07273,0.0986 2.25673,0.0493 3.05821,-0.0987 0.80149,-0.14802 1.22075,-0.39476 2.05879,-0.79529 0.83804,-0.40053 2.09691,-0.95595 3.29902,-1.73271 1.20212,-0.77678 2.34927,-1.77614 3.48971,-3.08922 1.14044,-1.31307 2.27521,-2.94112 3.13211,-4.64882 0.85689,-1.70767 1.43633,-3.49569 1.64589,-4.8643 0.20958,-1.3686 0.0495,-2.31853 -0.14159,-3.42201 -0.1911,-1.10348 -0.41325,-2.36139 -1.0852,-4.593 -0.67195,-2.23161 -1.79461,-5.43813 -2.57762,-7.79332 -0.78301,-2.35519 -1.22657,-3.85948 -1.89239,-5.31441 -0.66583,-1.45493 -1.55376,-2.86111 -2.41691,-4.15582 -0.86314,-1.29472 -1.70166,-2.47857 -2.3859,-3.1259 -0.68424,-0.64732 -1.2148,-0.75835 -2.41743,-0.99271 -1.20262,-0.23435 -3.07597,-0.59179 -4.72219,-0.7028 -1.64623,-0.111 -3.06441,0.0245 -4.52582,-0.0248 -1.46141,-0.0493 -2.9652,-0.28339 -4.5129,-0.77049 -1.54771,-0.48713 -3.1381,-1.22699 -4.80901,-1.97921 -1.67091,-0.75222 -3.42195,-1.51647 -4.85242,-2.2872 -1.43047,-0.77072 -2.54037,-1.54735 -4.42712,-3.82871 -1.88675,-2.28137 -4.55004,-6.06686 -6.14691,-8.39742 -1.59687,-2.33057 -2.1272,-3.20631 -2.51561,-4.42092 -0.38841,-1.2146 -0.63479,-2.76853 -0.65319,-3.70571 -0.0184,-0.93718 0.19141,-1.25764 0.6966,-2.02159 0.50519,-0.76395 1.3072,-1.97344 2.7497,-3.43441 1.44251,-1.46097 3.52699,-3.17539 5.66012,-4.38371 2.13312,-1.20832 4.31599,-1.91145 5.45652,-2.36162 1.14053,-0.45017 1.23946,-0.64745 1.71359,-0.78289 0.47412,-0.13543 1.32612,-0.20955 1.76371,-0.0987 0.4376,0.11082 0.46223,0.40692 0.72141,0.76482 0.25918,0.3579 0.75195,0.77668 1.48569,1.13429 0.73374,0.3576 1.70807,0.65375 2.71302,0.74621 1.00495,0.0925 2.041,-0.0185 3.3047,-0.6289 1.26373,-0.61032 2.756,-1.72049 3.74241,-2.26911 0.98641,-0.54861 1.46774,-0.53615 1.99781,-0.493 0.53007,0.0431 1.10954,0.11712 1.78749,0.5054 0.67794,0.38828 1.45522,1.09132 2.16421,2.0469 0.70899,0.95559 1.35005,2.16386 1.7632,2.8298 0.41315,0.66595 0.5985,0.78963 1.39371,0.87592 0.79521,0.0863 2.20117,0.13564 3.56981,0.0863 1.36864,-0.0493 2.70066,-0.19757 3.84111,-0.13591 1.14045,0.0617 2.09043,0.3329 2.71301,0.6904 0.62259,0.3575 0.91817,0.80146 1.34979,1.4304 0.43162,0.62894 0.999,1.44267 2.28772,2.41691 1.28872,0.97424 3.29859,2.10885 4.82761,2.99051 1.52901,0.88165 2.57708,1.51025 3.1874,2.15749 0.61031,0.64724 0.78274,1.31356 1.0294,2.13372 0.24665,0.82015 0.56727,1.79375 0.7276,2.51509 0.16033,0.72135 0.1603,1.19007 0.1788,1.75132 0.0185,0.56126 0.0558,1.21427 0.33331,2.32441 0.27753,1.11013 0.795,2.67564 1.7446,4.0137 0.9496,1.33806 2.33066,2.44771 3.40341,3.64991 1.07275,1.20221 1.83719,2.49679 2.7559,3.8101 0.9187,1.31332 1.99146,2.6454 3.13211,3.82613 1.14066,1.18073 2.34882,2.21004 3.63441,2.90059 1.28557,0.69055 2.64833,1.04232 3.32951,1.21802 0.68119,0.17569 0.68148,0.17529 1.22111,-0.17932 0.53963,-0.35462 1.61823,-1.06339 2.2624,-1.9451 0.64417,-0.88171 0.85372,-1.93613 1.29139,-3.6344 0.43767,-1.69828 1.10386,-4.04184 1.64021,-6.80992 0.53635,-2.76809 0.94334,-5.96228 1.2516,-8.85993 0.30826,-2.89766 0.51788,-5.49981 0.709,-8.04602 0.19111,-2.54622 0.36406,-5.03712 0.40722,-8.24911 0.0431,-3.21198 -0.0433,-7.14615 -0.10491,-10.31513 -0.0617,-3.16899 -0.0985,-5.57373 -0.59221,-8.42378 -0.49365,-2.85003 -1.44454,-6.14646 -2.20245,-9.45161 -0.53374,-2.32759 -3.04911,-9.22583 -2.01228,-12.832815 0.84098,-2.925673 5.25701,-0.83057 7.71671,-0.07762 4.3358,1.327245 4.24563,-1.685801 6.47777,-2.095445 3.34735,-0.614307 8.57248,-0.189574 10.25261,-3.316004 3.08792,-5.746094 3.97404,-13.296582 4.10104,-20.108333 0.0735,-3.939577 -3.57338,-6.677231 -1.52136,-12.038542 1.88922,-4.935944 3.89763,-9.866973 5.09323,-15.015104 0.73625,-3.170213 -1.27502,-7.640232 1.25936,-9.682096 1.89479,-1.526561 5.15228,-0.572032 7.27345,0.620117 3.28701,1.847374 4.28837,6.213708 6.68073,9.128125 7.44554,9.070295 14.45195,18.851986 23.8125,25.929167 5.36516,4.056411 12.43543,6.964433 12.43543,6.964433 z M 62.657674,103.57972 c 0.08772,-0.003 0.172831,0.005 0.25373,0.0238 0.6472,0.15417 1.02946,1.07241 1.445906,1.47329 0.416449,0.40087 0.866727,0.28365 1.122413,0.5855 0.255685,0.30184 0.317177,1.02372 0.215492,1.66191 -0.10169,0.63818 -0.366569,1.19283 -0.668694,1.5105 -0.302125,0.31766 -0.641006,0.39796 -0.869196,0.49041 -0.228193,0.0924 -0.345673,0.1969 -0.608232,0.20619 -0.26256,0.009 -0.668335,-0.0765 -1.084689,-0.28009 -0.416356,-0.20354 -0.84147,-0.52419 -1.149802,-0.93431 -0.30833,-0.41012 -0.499428,-0.90944 -0.625801,-1.5322 -0.126375,-0.62276 -0.187872,-1.36872 0.237713,-2.0469 0.372387,-0.59342 1.117113,-1.13525 1.73116,-1.15807 z"
       id="path872"
       inkscape:connector-curvature="0"
       sodipodi:nodetypes="ccssssscaaasccsccccccccscccscccccccccssccsccccccsscscccssscccccssccscsccccccssssscccccccsccsccccscsccsccsscccscsccccsccccccccccccccccsccccccccccccccccccccccccccccsccccsccscccccccccccccsccscccsccccccscsccccccssssccsccsscccccccccccccccc"
       inkscape:label="WaterTerrain" />
  </g>
  <g
     inkscape:label="Roads"
     inkscape:groupmode="layer"
     id="layer1"
     transform="translate(0,-26.06665)"
     style="display:inline">
    <path
       id="path4612"
       style="fill:none;fill-rule:evenodd;stroke:#625b5b;stroke-width:0.86492294;stroke-linecap:butt;stroke-linejoin:miter;stroke-miterlimit:4;stroke-dasharray:none;stroke-opacity:1"
       inkscape:path-effect="#path-effect4614"
       inkscape:original-d="m 18.618841,70.369247 c -0.653725,0.250937 -1.307412,0.502023 -1.961969,0.753605 -0.04307,0.277051 -0.08634,0.553995 -0.129932,0.831563 -0.02573,0.307368 -0.0517,0.614657 -0.07796,0.922516 0.563465,1.503048 1.12634,3.005498 1.689113,4.508628 m 5.223254,7.38013 c 0.09988,-0.25147 0.199491,-0.50267 0.298841,-0.75361 0.268791,-0.19949 0.537315,-0.39872 0.805576,-0.59769 m -7.665967,2.20884 c 0.645592,-0.32509 1.290919,-0.64992 1.935982,-0.97448 m -2.498852,-2.10324 c 0.01251,0.0242 0.02476,0.0487 0.03675,0.0735 0.169212,0.25667 0.336681,0.51136 0.504663,0.76749 0.686257,0.42676 2.057663,1.28088 2.057663,1.28088 l 4.526583,0.0225 c 0,0 0.125333,1.42416 0.187636,2.13703 0.251482,0.25708 0.502518,0.51424 0.75338,0.77175 0.58215,0.25087 1.164022,0.50199 1.745636,0.75338 M 124.0621,174.56808 c -0.12836,0.98586 -0.25698,1.97199 -0.38587,2.95839 0.086,0.60017 0.17176,1.20024 0.25725,1.80076 m 66.62834,69.45404 c -0.19087,-2.23218 -0.382,-4.46408 -0.57339,-6.69573 -1.61492,-3.6745 -3.23045,-7.34953 -4.84608,-11.0239 -1.30677,-2.20127 -2.6139,-4.40243 -3.92125,-6.60324 -0.65326,-1.68339 -1.30682,-3.36663 -1.96063,-5.04954 -0.41279,-2.20116 -0.82591,-4.40243 -1.23926,-6.60324 -0.6039,-0.74006 -1.20817,-1.47999 -1.81266,-2.21958 -0.0737,-1.38745 -0.14771,-2.77474 -0.22196,-4.16171 -1.51,-1.68931 -3.02082,-3.37895 -4.53163,-5.06803 -1.3623,-1.20253 -2.72489,-2.40481 -4.08772,-3.60682 -1.17736,-1.43067 -2.35496,-2.86105 -3.53283,-4.29118 -0.84439,-1.72657 -1.68908,-3.45294 -2.53402,-5.17901 -1.49785,-1.66485 -2.99616,-3.32963 -4.49464,-4.99405 -1.5226,-2.78705 -3.04549,-5.57387 -4.56863,-8.36041 -0.7889,-0.73394 -1.57811,-1.46765 -2.36755,-2.20108 -1.45481,-0.16674 -2.90985,-0.3332 -4.36517,-0.49941 -2.3511,0.21571 -4.70139,0.43159 -7.05296,0.64783 -0.57836,-0.36173 -1.15673,-0.72304 -1.73564,-1.08425 -1.27542,0.51858 -2.5503,1.0371 -3.82645,1.5563 -1.41825,0.48528 -2.83556,0.97042 -4.2542,1.45619 -1.48822,-0.0353 -2.97586,-0.0704 -4.46447,-0.1052 -0.20938,-0.0848 -0.41884,-0.16923 -0.62888,-0.25354 -1.54805,-1.42974 -3.09427,-2.85726 -4.6418,-4.2855 -1.11145,-0.6019 -2.22316,-1.20353 -3.33514,-1.8049 M 224.6436,92.218499 c -0.6624,2.30163 -1.32507,4.60353 -1.988,6.9057 0.13979,1.028751 0.27928,2.057491 0.41852,3.086641 -0.66255,1.43002 -1.32507,2.85967 -1.988,4.28991 -0.48813,1.69166 -0.9763,3.38283 -1.46485,5.07464 -0.62764,0.10439 -1.25532,0.209 -1.88337,0.3139 -2.02359,0.33123 -4.0455,0.6624 -6.06865,0.994 -1.77874,-0.88977 -3.55722,-1.77901 -5.33623,-2.66811 -1.98786,-1.74424 -3.97575,-3.488 -5.96402,-5.2316 -2.21446,-1.16866 -4.42915,-2.33704 -6.64412,-3.50516 -4.02824,-4.970501 -8.05639,-9.940301 -12.08498,-14.910051 -2.80734,-3.99369 -5.61498,-7.98716 -8.42287,-11.98035 -2.04003,0.0869 -4.08038,0.17412 -6.12096,0.26158 -0.85435,-0.68046 -1.70873,-1.360483 -2.56349,-2.040324 -2.92954,-3.313737 -5.85912,-6.626953 -8.78907,-9.940031 -5.40569,-0.471106 -10.8117,-0.941951 -16.21795,-1.412531 -5.10948,1.952951 -10.21878,3.905994 -15.32857,5.859386 -5.92924,1.761149 -11.85801,3.522342 -17.78742,5.283912 -3.0691,1.011229 -6.13814,2.022618 -9.207605,3.034328 -6.086454,-2.668658 -12.171913,-5.336494 -18.258264,-8.004344 -3.330585,1.115831 -6.661012,2.231786 -9.992346,3.34822 -1.70887,0.121816 -3.417364,0.243852 -5.126961,0.366212 -2.912693,-1.814399 -5.824149,-3.627597 -8.737107,-5.441302 -1.918069,-0.07002 -3.835847,-0.139751 -5.754358,-0.209236 -2.127409,-0.06988 -4.254909,-0.139499 -6.382597,-0.208846 -3.400097,2.580523 -6.800807,5.161575 -10.201608,7.742759 M 241.0757,261.39587 c 0.11125,-2.2445 0.22223,-4.48874 0.33294,-6.73271 -0.48059,-2.19491 -0.96155,-4.3901 -1.44273,-6.58475 -0.0737,-3.50195 -0.1477,-7.00426 -0.22195,-10.506 0.17288,-1.65249 0.34553,-3.30497 0.5179,-4.95706 0.71534,-2.42904 1.43066,-4.85867 2.14559,-7.28761 0.64139,-1.7757 1.28269,-3.55159 1.92363,-5.32698 -0.29562,-3.10712 -0.59162,-6.21509 -0.88783,-9.32223 0.19755,-2.39229 0.39486,-4.78469 0.59189,-7.17663 0.56742,-1.55379 1.13471,-3.10768 1.70168,-4.66112 0.93722,-2.355 1.87457,-4.7107 2.81146,-7.06565 -0.0737,-1.03593 -0.14771,-2.07187 -0.22196,-3.10741 -0.17233,-5.90541 -0.345,-11.81335 -0.5179,-17.71962 -0.73956,-3.39114 -1.47945,-6.78231 -2.21958,-10.17307 -0.271,-2.30602 -0.54229,-4.61205 -0.81384,-6.91768 0.24686,-2.88543 0.4935,-5.77117 0.73986,-8.65635 0.33317,-1.29489 0.66614,-2.58977 0.99881,-3.88426 -0.38191,-1.06048 -0.76426,-2.1212 -1.14678,-3.1814 -1.23266,-0.85098 -2.46594,-1.70194 -3.6993,-2.55251 -1.99744,-1.13477 -3.99497,-2.26917 -5.99286,-3.40335 -1.80014,-1.55404 -3.60038,-3.10768 -5.40097,-4.66112 -0.8284,0.0364 -1.65689,0.073 -2.48597,0.10989 -0.79356,-0.56574 -1.58696,-1.13092 -2.38101,-1.6961 -0.88856,-0.96046 -1.77715,-1.92039 -2.66612,-2.88019 -0.36069,-2.11488 -0.72164,-4.22951 -1.08286,-6.34388 -0.76539,-1.72382 -1.53104,-3.44738 -2.29696,-5.17067 M 22.520957,222.87757 c 2.302166,0.67112 4.604067,1.34251 6.905704,2.01416 1.21216,1.01982 2.424237,2.04006 3.635957,3.06048 1.447644,0.3921 2.895082,0.78448 4.342225,1.17711 1.430055,0.5054 2.860202,1.01118 4.289907,1.51717 0.73261,-1.11622 1.465112,-2.23242 2.197269,-3.34823 1.316522,-2.17949 2.633501,-4.35992 3.949854,-6.53949 1.185923,-0.7413 2.37192,-1.48255 3.557484,-2.22342 0.889405,-0.33152 1.779005,-0.66294 2.668114,-0.99401 0.932897,-1.29026 1.866199,-2.58118 2.798902,-3.87138 2.223175,-2.68519 4.44712,-5.37137 6.670281,-8.05665 1.325462,-0.92442 2.65094,-1.84876 3.976013,-2.77275 1.220692,-0.57561 2.441675,-1.15121 3.662116,-1.72642 1.011442,-0.0264 2.023147,-0.0526 3.034324,-0.0785 0.845812,0.45302 1.691815,0.90655 2.537325,1.36022 0.741323,0.68848 1.482548,1.37739 2.223426,2.06648 0.645485,0.91525 1.290725,1.83079 1.935689,2.74658 0.663059,1.9024 1.325777,3.80485 1.988267,5.70766 0.690856,1.33776 1.381334,2.67556 2.071605,4.01374 0.752512,1.15277 1.504646,2.30563 2.256571,3.45884 0.91281,1.02943 1.825252,2.05901 2.737479,3.08891 1.387523,1.32534 2.774736,2.6509 4.161708,3.97675 1.042229,1.44245 2.0842,2.88518 3.125904,4.32817 1.165582,1.75696 2.330821,3.51407 3.495839,5.2715 0.64766,1.60282 1.29502,3.20579 1.94213,4.80908 0.35173,1.51658 0.70313,3.03316 1.0543,4.55014 0.44424,0.67186 0.88809,1.34381 1.33174,2.01611 1.11633,1.94822 2.23218,3.89633 3.34787,5.84489 0.93129,1.3562 1.86224,2.71255 2.79297,4.06923 1.31179,2.11117 2.6232,4.22243 3.93441,6.33405 0.5496,1.20304 1.09889,2.40626 1.64795,3.60979 0.59324,1.45601 1.18609,2.912 1.77874,4.36839 0.26187,0.2875 0.52342,0.57521 0.78474,0.86321 0.44497,0.10437 0.88963,0.209 1.33405,0.3139 1.56036,0.20019 3.12179,0.40082 4.68228,0.60163 1.53464,0.30487 3.06947,0.61009 4.60381,0.91553 0.84592,0.008 1.69181,0.0172 2.53732,0.0262 0.69759,-0.16588 1.39536,-0.3316 2.09264,-0.497 0.99382,0.30478 1.98827,0.61009 2.98201,0.91553 0.73256,0.35717 1.4651,0.71472 2.19726,1.07248 0.59309,0.54025 1.1861,1.08093 1.77875,1.62179 0.52341,0.0869 1.04658,0.17412 1.56947,0.26158 2.37967,0.0869 4.76102,0.17412 7.14113,0.26158 0.32284,-0.10488 0.6455,-0.20953 0.96785,-0.31389 1.82952,-1.15009 3.66238,-2.30217 5.49317,-3.45286 1.24692,-0.60179 2.49399,-1.20353 3.74059,-1.8049 0.62789,-0.13973 1.25585,-0.27928 1.88337,-0.41852 0.61904,-0.0787 1.23841,-0.15722 1.85722,-0.23543 0.44474,-0.32272 0.88964,-0.64549 1.33406,-0.96784 0.55792,-1.42927 1.11633,-2.8602 1.67411,-4.28991 0.98532,-1.56067 1.97083,-3.12178 2.95585,-4.68227 1.63045,-2.20582 3.26129,-4.41225 4.89154,-6.61797 0.2095,-0.42745 0.41879,-0.85476 0.62779,-1.28174 0.16581,-1.00224 0.3316,-2.00571 0.497,-3.00817 0.6453,-0.2269 1.29072,-0.45367 1.93569,-0.6801 2.59734,-1.01993 5.19698,-2.04059 7.79508,-3.06049 0.41874,0.0608 0.83731,0.12181 1.25558,0.18311 2.73668,0.28732 5.476,0.57521 8.2136,0.86321 2.10144,0.24386 4.20298,0.48802 6.30407,0.73242 1.74394,0.30488 3.488,0.61009 5.2316,0.91553 1.24697,0.47924 2.49399,0.95886 3.74058,1.43869 1.99677,0.81926 3.99372,1.63897 5.99018,2.45885 0.2967,0.0259 0.59318,0.0521 0.88937,0.0785 0.39232,-0.0961 0.78501,-0.19209 1.17711,-0.28774 0.76696,-0.85408 1.53487,-1.70925 2.3019,-2.56348 0.52326,0.0608 1.04658,0.1218 1.56948,0.1831 1.87409,-0.11356 3.74957,-0.22697 5.62397,-0.34005 0.65411,-0.24437 1.30816,-0.48855 1.96184,-0.73243 1.83043,-0.99378 3.66238,-1.98827 5.49318,-2.982 0.61922,0.0869 1.23841,0.17412 1.85721,0.26158 1.8481,0.0259 3.69726,0.052 5.54549,0.0785 0.27053,-0.9331 0.54086,-1.8662 0.8109,-2.7989 0.0351,-1.05495 0.07,-2.11034 0.10463,-3.16512 -0.4443,-0.82838 -0.88911,-1.65693 -1.33406,-2.485 -0.89342,-1.47153 -1.78731,-2.94313 -2.68136,-4.4143 M 77.315807,231.71469 c -0.428487,-0.55151 -0.857239,-1.10277 -1.286258,-1.65376 -1.114417,-0.22075 -2.22925,-0.44126 -3.34427,-0.6615 -0.538837,-0.47811 -1.077743,-0.95577 -1.617009,-1.43326 -0.771514,-1.13956 -1.543246,-2.27878 -2.315266,-3.41777 0.147257,-0.39225 0.294267,-0.78427 0.441003,-1.17601 0.489868,-0.14715 0.98027,-0.29427 1.470009,-0.441 0.685827,0.0609 1.372275,0.12223 2.058013,0.18375 0.845518,0.77149 1.690773,1.54324 2.535764,2.31526 0.576019,-0.11051 1.151774,-0.22076 1.727261,-0.33075 m -16.537601,10.91482 c 0.119793,-0.99759 0.239322,-1.99493 0.358586,-2.99199 1.722447,0.43592 3.444635,0.8721 5.166557,1.30855 0.762127,-1.45556 1.523986,-2.91086 2.285585,-4.3659 -0.700964,-0.3977 -1.402176,-0.79513 -2.10368,-1.19231 -1.182686,-0.82759 -2.365517,-1.65484 -3.548784,-2.48194 0.114471,-2.38794 0.228664,-4.77533 0.342599,-7.1626 1.174425,0.17026 2.348586,0.34079 3.522482,0.51158 1.365457,-0.97509 2.73065,-1.94992 4.095579,-2.92448 1.551821,0.51598 3.103378,1.03222 4.654669,1.54873 2.033513,0.63666 4.06729,1.27375 6.100538,1.91101 -0.269215,1.05316 -0.538739,2.10675 -0.808505,3.16052 -0.257063,1.0413 -0.514238,2.08225 -0.771755,3.12377 0.429146,0.94328 0.85777,1.88625 1.286258,2.82977 -0.808343,0.57556 -1.616745,1.15124 -2.425515,1.72726 -1.237453,0.8208 -2.474251,1.64125 -3.711773,2.46227 -1.543626,-0.60067 -3.086755,-1.20077 -4.630529,-1.80076 -0.93813,-0.26262 -1.876353,-0.52492 -2.814928,-0.78698"
       d="m 18.618841,70.369247 c -0.65367,0.251079 -1.307358,0.502165 -1.656305,0.766394 -0.348948,0.264229 -0.392221,0.541172 -0.426895,0.833647 -0.03467,0.292474 -0.06064,0.599764 0.207922,1.505287 0.268564,0.905523 0.831441,2.407972 1.39453,3.910984 m 5.223254,7.38013 c 0.09974,-0.251525 0.199353,-0.502725 0.383508,-0.727892 0.184154,-0.225167 0.452679,-0.424397 0.720909,-0.623408 m -7.665967,2.20884 c 0.645644,-0.324986 1.290973,-0.649813 1.935982,-0.97448 m -2.498852,-2.10324 c 0.01218,0.02436 0.02443,0.04886 0.115044,0.189618 0.09061,0.140753 0.258082,0.395442 0.685258,0.736942 0.427175,0.3415 1.112886,0.76835 1.798774,1.19531 0,0 4.526583,0.0225 4.526583,0.0225 0.06255,0.712343 0.125047,1.424185 0.281949,1.909278 0.156902,0.485093 0.40794,0.742251 0.82451,0.996469 0.416571,0.254218 0.998442,0.505341 1.580193,0.756413 M 124.0621,174.56808 c -0.12858,0.98583 -0.25721,1.97196 -0.27867,2.76528 -0.0215,0.79332 0.0643,1.39339 0.15005,1.99387 m 66.62834,69.45404 c -0.19115,-2.23216 -0.38228,-4.46406 -1.28545,-7.41707 -0.90318,-2.95302 -2.51871,-6.62805 -3.97991,-9.56585 -1.4612,-2.93779 -2.76833,-5.13895 -3.74863,-7.08108 -0.98031,-1.94214 -1.63387,-3.62537 -2.16716,-5.56744 -0.53329,-1.94207 -0.94641,-4.14334 -1.45503,-5.61369 -0.50862,-1.47034 -1.11289,-2.21027 -1.45199,-3.2739 -0.3391,-1.06363 -0.41309,-2.45093 -1.20522,-3.98895 -0.79213,-1.53801 -2.30294,-3.22766 -3.73948,-4.67345 -1.43654,-1.44579 -2.79912,-2.64807 -4.06924,-3.96444 -1.27011,-1.31636 -2.44771,-2.74674 -3.45886,-4.32512 -1.01115,-1.57839 -1.85584,-3.30476 -3.02722,-5.00017 -1.17137,-1.69541 -2.66968,-3.3602 -4.18024,-5.58597 -1.51056,-2.22578 -3.03344,-5.0126 -4.18943,-6.77279 -1.15599,-1.76019 -1.9452,-2.4939 -3.06722,-2.94397 -1.12201,-0.45008 -2.57705,-0.61654 -4.48024,-0.59182 -1.90318,0.0247 -4.25347,0.24061 -5.71854,0.1679 -1.46507,-0.0727 -2.04344,-0.43402 -2.97048,-0.35542 -0.92704,0.0786 -2.20192,0.59712 -3.54912,1.09937 -1.34721,0.50225 -2.76452,0.98739 -4.21798,1.21266 -1.45346,0.22527 -2.9411,0.19022 -3.79016,0.13044 -0.84905,-0.0598 -1.05851,-0.14421 -1.93762,-0.90126 -0.87911,-0.75704 -2.42532,-2.18457 -3.75477,-3.19962 -1.32945,-1.01504 -2.44116,-1.61667 -3.55297,-2.21836 M 224.6436,92.218499 c -0.66257,2.30158 -1.32524,4.603481 -1.58687,6.268986 -0.26164,1.665505 -0.12215,2.694245 -0.38371,3.923785 -0.26157,1.22954 -0.92408,2.65919 -1.49964,4.22014 -0.57556,1.56095 -1.06374,3.25212 -1.62173,4.15035 -0.55798,0.89823 -1.18566,1.00285 -2.51148,1.22091 -1.32583,0.21806 -3.34773,0.54924 -5.24878,0.2702 -1.90104,-0.27903 -3.67952,-1.16827 -5.563,-2.48496 -1.88348,-1.31669 -3.87137,-3.06045 -5.97269,-4.51656 -2.10133,-1.45611 -4.31602,-2.62449 -7.43768,-5.693845 -3.12167,-3.069352 -7.14982,-8.039151 -10.56779,-12.520882 -3.41797,-4.481731 -6.22561,-8.475203 -8.64941,-10.428313 -2.42381,-1.953111 -4.46416,-1.865916 -5.91174,-2.1624 -1.44759,-0.296484 -2.30197,-0.976502 -4.19415,-2.973314 -1.89217,-1.996811 -4.82175,-5.310028 -8.98944,-7.2021 -4.16769,-1.892072 -9.5737,-2.362918 -14.83153,-1.621805 -5.25783,0.741114 -10.36713,2.694157 -15.88664,4.551442 -5.51952,1.857285 -11.44829,3.618479 -15.94754,5.004874 -4.49926,1.386396 -7.5683,2.397785 -12.146353,1.56939 -4.578057,-0.828395 -10.663515,-3.496233 -15.371886,-4.272323 -4.708372,-0.776089 -8.038799,0.339865 -10.558919,0.959034 -2.520119,0.619168 -4.228614,0.741204 -6.539864,-0.104783 -2.31125,-0.845987 -5.222706,-2.659186 -7.638128,-3.601065 -2.415422,-0.941879 -4.3332,-1.011612 -6.356159,-1.081297 -2.02296,-0.06969 -4.15046,-0.1393 -6.914333,1.116172 -2.763872,1.255471 -6.164583,3.836523 -9.565414,6.417667 M 241.0757,261.39587 c 0.11099,-2.24451 0.22197,-4.48875 0.037,-6.70815 -0.18496,-2.2194 -0.66593,-4.41459 -0.94336,-7.26292 -0.27742,-2.84833 -0.35141,-6.35064 -0.30208,-8.92777 0.0493,-2.57713 0.22199,-4.22961 0.66587,-6.27019 0.44388,-2.04058 1.15921,-4.47021 1.83738,-6.57253 0.67817,-2.10232 1.31947,-3.87822 1.49206,-6.31943 0.17259,-2.44121 -0.12341,-5.54918 -0.17272,-8.29892 -0.0493,-2.74974 0.14801,-5.14214 0.53028,-7.11502 0.38228,-1.97288 0.94957,-3.52677 1.70167,-5.48099 0.7521,-1.95422 1.68944,-4.30992 2.12096,-6.00533 0.43152,-1.6954 0.35752,-2.73134 0.23423,-6.20182 -0.12328,-3.47048 -0.29595,-9.37842 -0.7522,-14.0271 -0.45625,-4.64867 -1.19614,-8.03984 -1.7017,-10.88825 -0.50555,-2.84841 -0.77685,-5.15444 -0.78916,-7.74999 -0.0123,-2.59556 0.23432,-5.4813 0.52411,-7.57135 0.28979,-2.09005 0.62276,-3.38493 0.59808,-4.56233 -0.0247,-1.17741 -0.40704,-2.23813 -1.21457,-3.19362 -0.80754,-0.9555 -2.04082,-1.80646 -3.6562,-2.79912 -1.61539,-0.99266 -3.61292,-2.12706 -5.51197,-3.47119 -1.89904,-1.34413 -3.69929,-2.89777 -5.01365,-3.65632 -1.31437,-0.75855 -2.14286,-0.72193 -2.95429,-0.98632 -0.81143,-0.2644 -1.60484,-0.82958 -2.44617,-1.59242 -0.84134,-0.76284 -1.72992,-1.72278 -2.35477,-3.26022 -0.62484,-1.53744 -0.98579,-3.65207 -1.5491,-5.57112 -0.56332,-1.91905 -1.32897,-3.64261 -2.09457,-5.36604 M 22.520957,222.87757 c 2.302074,0.67144 4.603975,1.34282 6.3608,2.18854 1.756824,0.84572 2.968903,1.86596 4.298662,2.57224 1.329759,0.70627 2.777197,1.09865 4.215782,1.54767 1.438586,0.44901 2.868731,0.9548 3.949912,0.6495 1.081182,-0.30529 1.813685,-1.42149 2.838017,-3.06915 1.024331,-1.64765 2.341311,-3.82808 3.592511,-5.28845 1.2512,-1.46038 2.437199,-2.20162 3.474688,-2.73778 1.037489,-0.53616 1.927088,-0.86758 2.838039,-1.67834 0.910951,-0.81076 1.844252,-2.10168 3.422202,-4.08936 1.577951,-1.98769 3.801898,-4.67387 5.576241,-6.47868 1.774344,-1.80481 3.099818,-2.72916 4.372711,-3.47893 1.272892,-0.74976 2.493874,-1.32537 3.609791,-1.62611 1.115918,-0.30075 2.127624,-0.32692 3.05603,-0.11333 0.928407,0.21359 1.77441,0.66711 2.567783,1.23817 0.793372,0.57106 1.5346,1.25996 2.227758,2.0621 0.693158,0.80214 1.338397,1.71768 1.992401,3.12673 0.654003,1.40904 1.316722,3.31149 1.993396,4.9318 0.676673,1.62031 1.36715,2.95811 2.088547,4.20361 0.721397,1.24549 1.47353,2.39835 2.305911,3.48969 0.832381,1.09135 1.744823,2.12093 2.894709,3.29856 1.149885,1.17763 2.537098,2.50319 3.751677,3.88731 1.21458,1.38413 2.256552,2.82686 3.360192,4.42682 1.103641,1.59997 2.268882,3.35708 3.175213,5.03717 0.90633,1.68009 1.55369,3.28306 2.05311,4.84297 0.49943,1.5599 0.85083,3.07648 1.24854,4.17097 0.3977,1.09448 0.84156,1.76643 1.62154,3.07668 0.77999,1.31025 1.89584,3.25836 2.91933,4.91075 1.0235,1.6524 1.95445,3.00875 3.0757,4.74267 1.12126,1.73391 2.43267,3.84517 3.36307,5.50248 0.9304,1.65731 1.4797,2.86052 2.05084,4.19029 0.57115,1.32976 1.164,2.78575 1.59128,3.65776 0.42728,0.872 0.68884,1.15971 1.04208,1.35593 0.35325,0.19621 0.79791,0.30084 1.80031,0.45338 1.00241,0.15254 2.56384,0.35317 4.1114,0.60601 1.54755,0.25284 3.08238,0.55806 4.27254,0.715 1.19015,0.15693 2.03605,0.16567 2.80762,0.0872 0.77158,-0.0785 1.46935,-0.2442 2.31483,-0.17445 0.84547,0.0697 1.83992,0.37506 2.70304,0.70637 0.86313,0.33131 1.59566,0.68886 2.25824,1.13784 0.66258,0.44899 1.25559,0.98967 1.81372,1.30357 0.55813,0.31391 1.0813,0.4011 2.5326,0.48826 1.4513,0.0872 3.83265,0.1744 5.18416,0.16563 1.3515,-0.009 1.67416,-0.11341 2.7501,-0.74069 1.07593,-0.62727 2.90878,-1.77935 4.44764,-2.65557 1.53886,-0.87623 2.78593,-1.47796 3.72317,-1.84847 0.93724,-0.37051 1.5652,-0.51005 2.18848,-0.61901 0.62327,-0.10896 1.24264,-0.18747 1.77442,-0.38803 0.53177,-0.20056 0.97667,-0.52332 1.47776,-1.39918 0.50108,-0.87586 1.0595,-2.30679 1.83108,-3.80198 0.77158,-1.49518 1.75709,-3.05629 3.06484,-4.93944 1.30775,-1.88315 2.93859,-4.08958 3.85843,-5.40618 0.91984,-1.31659 1.12913,-1.7439 1.31648,-2.4585 0.18735,-0.71461 0.35314,-1.71808 0.75863,-2.33266 0.40548,-0.61458 1.05091,-0.84135 2.67206,-1.46454 1.62116,-0.62319 4.22079,-1.64385 5.72917,-2.12334 1.50837,-0.47949 1.92694,-0.41845 3.50442,-0.24414 1.57748,0.17431 4.3168,0.4622 6.73632,0.72813 2.41952,0.26593 4.52106,0.51009 6.44356,0.78473 1.92251,0.27465 3.66657,0.57986 5.16182,0.97221 1.49525,0.39235 2.74227,0.87197 4.36394,1.52152 1.62168,0.64954 3.61863,1.46925 4.76526,1.89212 1.14663,0.42288 1.44312,0.44904 1.78741,0.41416 0.34429,-0.0349 0.73698,-0.13087 1.31647,-0.60584 0.5795,-0.47497 1.34741,-1.33014 1.99255,-1.72672 0.64514,-0.39659 1.16846,-0.33554 2.36698,-0.36169 1.19851,-0.0262 3.074,-0.13956 4.33827,-0.31834 1.26427,-0.17877 1.91832,-0.42296 3.16038,-1.04181 1.24205,-0.61886 3.074,-1.61334 4.29897,-2.06665 1.22496,-0.45331 1.84415,-0.3661 3.07762,-0.30944 1.23347,0.0567 3.08263,0.0828 4.14192,-0.37066 1.05929,-0.45349 1.32963,-1.38659 1.48217,-2.38039 0.15254,-0.99381 0.18743,-2.0492 -0.0174,-2.99069 -0.20488,-0.94149 -0.64968,-1.77004 -1.31887,-2.91983 -0.66918,-1.14979 -1.56307,-2.62139 -2.45681,-4.09275 M 77.315807,231.71469 c -0.428777,-0.55128 -0.857533,-1.10254 -1.629134,-1.48837 -0.771601,-0.38583 -1.886433,-0.60635 -2.713457,-0.95553 -0.827024,-0.34919 -1.365926,-0.82685 -2.021346,-1.63541 -0.65542,-0.80856 -1.427151,-1.94778 -1.739452,-2.71353 -0.3123,-0.76575 -0.165293,-1.15777 0.153108,-1.4271 0.318401,-0.26934 0.808804,-0.41645 1.396545,-0.45929 0.587742,-0.0428 1.274194,0.0185 2.03971,0.43495 0.765515,0.41649 1.610768,1.18825 2.321419,1.51896 0.710651,0.33072 1.286406,0.22047 1.861854,0.11028 m -16.537601,10.91482 c 0.119563,-0.99762 0.239093,-1.99496 1.160024,-2.27536 0.920931,-0.2804 2.643118,0.15578 3.885131,-0.35395 1.242014,-0.50974 2.003875,-1.96504 2.034153,-2.89123 0.03028,-0.92619 -0.670934,-1.32362 -1.613044,-1.93601 -0.942111,-0.61239 -2.124945,-1.43964 -2.659362,-3.04731 -0.534418,-1.60768 -0.420225,-3.99507 0.224059,-5.10342 0.644284,-1.10835 1.818445,-0.93782 3.088161,-1.3401 1.269715,-0.40227 2.63491,-1.3771 4.093214,-1.60626 1.458304,-0.22915 3.00986,0.28709 4.802266,0.86367 1.792406,0.57658 3.826184,1.21367 4.708156,2.0587 0.881972,0.84503 0.612449,1.89862 0.349033,2.94616 -0.263416,1.04753 -0.520592,2.08848 -0.434841,3.08098 0.08575,0.99249 0.514372,1.93546 0.324623,2.69496 -0.18975,0.75949 -0.998152,1.33517 -2.021262,2.03359 -1.02311,0.69841 -2.259907,1.51886 -3.650564,1.62917 -1.390657,0.1103 -2.933785,-0.4898 -4.174719,-0.92111 -1.240935,-0.4313 -2.179157,-0.6936 -3.117644,-0.95598"
       inkscape:connector-curvature="0"
       inkscape:label="DirtRoadPath"
       sodipodi:nodetypes="cccccccccccccccccccccccccccccccccccccccccccccccccccccccccccccccccccccccccccccccccccccccccccccccccccccccccccccccccccccccccccccccccccccccccccccccccccccccccccccccccccccccccccccccccccccccccccccccccccccccc" />
    <path
       id="path4539"
       style="fill:none;fill-rule:evenodd;stroke:#b80000;stroke-width:1.16499996;stroke-linecap:butt;stroke-linejoin:miter;stroke-miterlimit:4;stroke-dasharray:none;stroke-opacity:1"
       d="m 12.93679,211.84151 c 2.083662,0.39536 2.457652,0.41673 3.088093,1.04717 0.630441,0.63044 2.778215,1.85927 3.387285,3.70785 0.60907,1.84858 13.92313,24.18115 14.222321,24.74748 0.299193,0.56633 0.612709,0.89723 1.45072,0.23427 3.529383,-2.79217 5.295063,-4.34891 10.923464,-4.61308 6.205445,-0.29125 13.422635,-0.91166 15.175568,-0.94187 1.752934,-0.0302 1.813382,0.51379 2.508509,1.23914 0.695131,0.72536 4.382333,4.95657 5.017016,5.74237 0.634683,0.7858 1.843603,0.96714 2.538732,1.1787 M 27.6079,74.127549 c 0,0 0.320563,0.68386 0.363307,1.15402 0.04274,0.47016 0.406045,0.87621 1.111284,1.26089 0.705239,0.38467 3.846759,1.902 4.722966,2.7141 0.876205,0.81209 0.470159,4.08184 -0.299193,5.10764 -0.76935,1.0258 -1.859267,0.47016 -3.034665,0.19234 -1.175399,-0.27783 -2.585876,-0.59839 -3.483454,-0.12823 -0.897577,0.47016 -2.169754,-0.34798 -2.661284,-1.01048 -0.491531,-0.66249 -2.517195,-4.90712 -2.639913,-5.98989 -0.119369,-1.05322 -5.897145,-15.396318 -6.452788,-16.678571 -0.555643,-1.282253 -0.299192,-3.568938 0.341934,-4.316918 0.641127,-0.747982 4.145951,-3.333859 5.470946,-3.633049 1.324995,-0.299194 2.329426,0.53427 2.564506,1.068543 0.235079,0.534271 0.897577,2.350797 0.940319,3.41934 0.04274,1.068544 0.192337,4.167323 -0.08548,5.449575 -0.277821,1.282253 -0.833464,3.868129 -0.619756,5.107641 0.213709,1.239512 1.367737,2.137088 1.624188,2.479022 0.25645,0.341934 1.731041,1.560076 1.94475,2.43628 0.21371,0.876208 0.192337,1.367747 0.192337,1.367747 z M 9.4580092,92.214559 c 3.4143688,-1.82412 3.5546848,-3.46115 5.1449388,-7.0626 1.590253,-3.60146 2.525697,-5.14494 6.969052,-7.76418 4.443356,-2.61924 6.361014,-3.41437 8.185128,-3.554695 1.824117,-0.140313 2.666016,-0.327403 3.414369,-0.795125 M 9.1386289,90.704549 C 1.0070833,58.378114 8.4309691,48.039731 16.614721,41.913148 c 4.091876,-3.063292 8.783112,-5.106191 18.652467,-4.77605 9.869354,0.330142 24.916829,3.033325 31.464932,3.641363 13.096206,1.216076 19.82912,4.371938 54.44053,2.220418 34.6114,-2.151519 35.95312,1.272821 50.47989,10.691453 7.5367,4.886525 24.47319,18.575887 39.0778,29.275027 14.60461,10.69913 31.37106,22.018001 37.55771,26.500101 13.04935,9.45399 15.73344,21.6342 15.6219,39.16768 -0.0558,8.76674 0.6803,22.87398 0.76382,37.67771 0.0835,14.80374 -0.88241,30.27089 -1.44603,41.92284 -1.11897,23.13306 -6.38709,28.6744 -20.5637,32.40744 -10.9485,2.883 -26.28805,1.79125 -34.8687,3.28133 -2.10548,0.36562 -3.82204,1.38032 -6.57814,1.73115 -2.75609,0.35082 -4.78519,1.59145 -7.72738,3.43691 -3.52344,2.21003 -13.99601,10.95928 -16.68889,12.94842 -4.89508,3.61584 -11.09218,4.35663 -15.19306,4.37365 -6.94534,0.0288 -14.08944,1.33702 -34.59673,1.25482 -20.5073,-0.0822 -31.118167,-3.59342 -43.185386,-7.80292 -12.06722,-4.2095 -22.170006,-5.70621 -37.324188,-8.23191 -7.577091,-1.26285 -7.443279,0.10558 -17.341826,-2.43487 -8.852318,-2.27193 -14.714094,-5.47324 -17.550211,-12.34513 -4.3081106,-10.43851 0.467723,-27.03431 1.216077,-42.93684 0.748354,-15.90253 1.683797,-38.25964 1.777342,-50.51395 0.04677,-6.12715 0.693376,-15.49846 1.500208,-27.01295 1.005583,-14.3509 -2.779822,-29.04827 -6.9645271,-45.684291 z"
       inkscape:connector-curvature="0"
       inkscape:label="AsphaltRoadsPath"
       sodipodi:nodetypes="cssccsccsccccsccscssscsccscscccssscssssssssccsscccccsssssssss" />
    <path
       style="fill:none;fill-rule:evenodd;stroke:#000000;stroke-width:0.565;stroke-linecap:butt;stroke-linejoin:miter;stroke-miterlimit:4;stroke-dasharray:2.26000001, 0.565;stroke-dashoffset:0;stroke-opacity:1"
       d="M 270.93333,159.6971 112.69044,296.99998"
       id="path4543"
       inkscape:connector-curvature="0"
       sodipodi:nodetypes="cc"
       inkscape:label="RailwayPath" />
    <path
       style="color:#000000;clip-rule:nonzero;display:inline;overflow:visible;visibility:visible;opacity:1;isolation:auto;mix-blend-mode:normal;color-interpolation:sRGB;color-interpolation-filters:linearRGB;solid-color:#000000;solid-opacity:1;fill:none;fill-opacity:1;fill-rule:nonzero;stroke:#625b5b;stroke-width:0.86492294;stroke-linecap:butt;stroke-linejoin:bevel;stroke-miterlimit:4;stroke-dasharray:none;stroke-dashoffset:5.98677158;stroke-opacity:1;color-rendering:auto;image-rendering:auto;shape-rendering:auto;text-rendering:auto;enable-background:accumulate"
       d="m 110.14845,71.511364 c 1.87089,8.652851 0.70159,13.189751 -1.77734,18.75564"
       id="path875"
       inkscape:connector-curvature="0" />
  </g>
</svg>
