# 3ds Max Wavefront OBJ Exporter v0.97b - (c)2007 guruware
# File Created: 04.08.2018 01:09:56

#
# object Floodlight_base
#

v  -0.17500 0.02699 -0.01500
v  -0.17500 0.02699 0.01500
v  0.17500 0.02699 0.01500
v  0.17500 0.02699 -0.01500
v  -0.17500 0.03699 -0.01500
v  0.17500 0.03699 -0.01500
v  0.17500 0.03699 0.01500
v  -0.17500 0.03699 0.01500
v  0.13767 0.05910 0.01000
v  0.13767 0.23192 0.01000
v  0.14067 0.23192 0.01000
v  0.14067 0.05850 0.01000
v  0.13767 0.05910 -0.01000
v  0.13767 0.23192 -0.01000
v  0.14067 0.05850 -0.01000
v  0.14067 0.23192 -0.01000
v  0.13206 0.04558 0.01000
v  0.13436 0.04328 0.01000
v  0.13206 0.04558 -0.01000
v  0.13436 0.04328 -0.01000
v  0.11855 0.03998 0.01000
v  0.11915 0.03698 0.01000
v  0.11855 0.03998 -0.01000
v  0.11915 0.03698 -0.01000
v  0.00000 0.03698 0.01000
v  0.00000 0.03998 0.01000
v  0.00000 0.03998 -0.01000
v  0.00000 0.03698 -0.01000
v  0.13767 0.23987 -0.00495
v  0.14067 0.23987 -0.00495
v  0.14067 0.23987 0.00495
v  0.13767 0.23987 0.00495
v  -0.13767 0.05910 0.01000
v  -0.14067 0.05850 0.01000
v  -0.14067 0.23192 0.01000
v  -0.13767 0.23192 0.01000
v  -0.13767 0.05910 -0.01000
v  -0.13767 0.23192 -0.01000
v  -0.14067 0.05850 -0.01000
v  -0.14067 0.23192 -0.01000
v  -0.13206 0.04558 0.01000
v  -0.13436 0.04328 0.01000
v  -0.13206 0.04558 -0.01000
v  -0.13436 0.04328 -0.01000
v  -0.11855 0.03998 0.01000
v  -0.11915 0.03698 0.01000
v  -0.11855 0.03998 -0.01000
v  -0.11915 0.03698 -0.01000
v  -0.13767 0.23987 -0.00495
v  -0.13767 0.23987 0.00495
v  -0.14067 0.23987 0.00495
v  -0.14067 0.23987 -0.00495
v  -0.17574 0.02886 0.06360
v  -0.18386 0.02074 0.06360
v  -0.18386 0.02074 -0.06360
v  -0.17574 0.02886 -0.06360
v  -0.16426 0.02886 0.06360
v  -0.16426 0.02886 -0.06360
v  -0.15614 0.02074 0.06360
v  -0.15614 0.02074 -0.06360
v  -0.18386 0.00926 0.06360
v  -0.18386 0.00926 -0.06360
v  -0.15614 0.00926 -0.06360
v  -0.15614 0.00926 0.06360
v  -0.16426 0.00114 -0.06360
v  -0.16426 0.00114 0.06360
v  -0.17574 0.00114 -0.06360
v  -0.17574 0.00114 0.06360
v  0.17574 0.02886 0.06360
v  0.17574 0.02886 -0.06360
v  0.18386 0.02074 -0.06360
v  0.18386 0.02074 0.06360
v  0.16426 0.02886 0.06360
v  0.16426 0.02886 -0.06360
v  0.15614 0.02074 0.06360
v  0.15614 0.02074 -0.06360
v  0.18386 0.00926 0.06360
v  0.18386 0.00926 -0.06360
v  0.15614 0.00926 0.06360
v  0.15614 0.00926 -0.06360
v  0.16426 0.00114 0.06360
v  0.16426 0.00114 -0.06360
v  0.17574 0.00114 0.06360
v  0.17574 0.00114 -0.06360
v  0.15383 -0.00214 0.13633
v  0.15383 -0.00214 0.05928
v  0.15383 0.02170 0.05928
v  0.15383 0.02170 0.12803
v  0.16330 0.03117 0.05928
v  0.16330 0.03117 0.11730
v  0.17670 0.03117 0.05928
v  0.17670 0.03117 0.11730
v  0.18617 0.02170 0.05928
v  0.18617 0.02170 0.12803
v  0.18617 -0.00214 0.05928
v  0.18617 -0.00214 0.13633
v  -0.15383 -0.00214 0.13633
v  -0.15383 0.02170 0.12803
v  -0.15383 0.02170 0.05928
v  -0.15383 -0.00214 0.05928
v  -0.16330 0.03117 0.11730
v  -0.16330 0.03117 0.05928
v  -0.17670 0.03117 0.11730
v  -0.17670 0.03117 0.05928
v  -0.18617 0.02170 0.12803
v  -0.18617 0.02170 0.05928
v  -0.18617 -0.00214 0.13633
v  -0.18617 -0.00214 0.05928
v  0.15383 -0.00214 -0.13633
v  0.15383 0.02170 -0.12803
v  0.15383 0.02170 -0.05928
v  0.15383 -0.00214 -0.05928
v  0.16330 0.03117 -0.11730
v  0.16330 0.03117 -0.05928
v  0.17670 0.03117 -0.11730
v  0.17670 0.03117 -0.05928
v  0.18617 0.02170 -0.12803
v  0.18617 0.02170 -0.05928
v  0.18617 -0.00214 -0.13633
v  0.18617 -0.00214 -0.05928
v  -0.15383 -0.00214 -0.13633
v  -0.15383 -0.00214 -0.05928
v  -0.15383 0.02170 -0.05928
v  -0.15383 0.02170 -0.12803
v  -0.16330 0.03117 -0.05928
v  -0.16330 0.03117 -0.11730
v  -0.17670 0.03117 -0.05928
v  -0.17670 0.03117 -0.11730
v  -0.18617 0.02170 -0.05928
v  -0.18617 0.02170 -0.12803
v  -0.18617 -0.00214 -0.05928
v  -0.18617 -0.00214 -0.13633
# 132 vertices

vn 0.00000 -1.00000 0.00000
vn 0.00000 1.00000 0.00000
vn 0.00000 0.00000 1.00000
vn -1.00000 0.00000 0.00000
vn 0.00000 0.00000 -1.00000
vn 1.00000 0.00000 0.00000
vn 0.00000 0.00000 1.00000
vn 0.00000 0.27958 0.96012
vn -0.98075 0.19525 0.00000
vn 0.00000 0.00000 -1.00000
vn 0.00000 0.27958 -0.96012
vn 0.00000 0.27958 -0.96012
vn 0.98075 -0.19525 0.00000
vn -0.70711 0.70711 0.00000
vn 0.70711 -0.70711 0.00000
vn -0.19525 0.98075 0.00000
vn 0.19525 -0.98075 0.00000
vn 0.00000 0.87660 -0.48122
vn 0.00000 0.87660 0.48122
vn 0.00000 0.00000 1.00000
vn 0.00000 0.27958 0.96012
vn 0.98075 0.19525 0.00000
vn -0.98075 -0.19525 0.00000
vn 0.70711 0.70711 0.00000
vn -0.70711 -0.70711 0.00000
vn 0.19525 0.98075 0.00000
vn -0.19525 -0.98075 0.00000
vn -0.38268 0.92388 0.00000
vn -0.92388 0.38268 0.00000
vn -0.38268 0.92388 0.00000
vn 0.38268 0.92388 0.00000
vn 0.38268 0.92388 0.00000
vn 0.92388 0.38268 0.00000
vn -0.92388 -0.38268 0.00000
vn 0.92388 -0.38268 0.00000
vn 0.38268 -0.92388 0.00000
vn -0.38268 -0.92388 0.00000
vn -0.92388 0.38269 0.00000
vn -0.97030 0.24190 0.00000
vn -0.38268 0.92388 0.00000
vn -0.44922 0.89342 0.00000
vn 0.38268 0.92388 0.00000
vn 0.44922 0.89342 0.00000
vn 0.92388 0.38268 0.00000
vn 0.97030 0.24190 0.00000
vn 0.00000 0.50691 0.86200
vn 0.00000 0.50691 0.86200
vn 0.00000 0.32874 0.94442
vn 0.00000 0.32874 0.94442
vn 0.00000 0.00000 -1.00000
vn 0.00000 0.74994 0.66151
vn 0.97030 0.24190 0.00000
vn 0.92388 0.38269 0.00000
vn 0.44922 0.89342 0.00000
vn 0.38268 0.92388 0.00000
vn -0.44922 0.89342 0.00000
vn -0.38268 0.92388 0.00000
vn -0.97030 0.24190 0.00000
vn -0.92388 0.38268 0.00000
vn 0.00000 0.50691 0.86200
vn 0.00000 0.32874 0.94442
vn 0.00000 0.50691 0.86200
vn 0.00000 0.74994 0.66151
vn 0.00000 0.50691 -0.86200
vn 0.00000 0.32874 -0.94442
vn 0.00000 0.32874 -0.94442
vn 0.00000 0.50691 -0.86200
vn 0.00000 0.00000 1.00000
vn 0.00000 0.74994 -0.66151
vn 0.00000 0.50691 -0.86200
vn 0.00000 0.50691 -0.86200
vn 0.00000 0.32874 -0.94442
vn 0.00000 0.74994 -0.66151
# 73 vertex normals

vt 0.570376 0.124765 0.000000
vt 0.570376 0.168169 0.000000
vt 0.064006 0.168169 0.000000
vt 0.064006 0.124766 0.000000
vt 0.570376 0.110298 0.000000
vt 0.064005 0.110299 0.000000
vt 0.064004 0.066896 0.000000
vt 0.570375 0.066895 0.000000
vt 0.064004 0.052428 0.000000
vt 0.570375 0.052428 0.000000
vt 0.584842 0.066895 0.000000
vt 0.584844 0.110298 0.000000
vt 0.049537 0.110299 0.000000
vt 0.049537 0.066896 0.000000
vt 0.277536 0.923677 0.000000
vt 0.025122 0.923677 0.000000
vt 0.025122 0.919302 0.000000
vt 0.277536 0.919302 0.000000
vt 0.277536 0.952824 0.000000
vt 0.025122 0.952824 0.000000
vt 0.277536 0.957200 0.000000
vt 0.025122 0.957200 0.000000
vt 0.277536 0.985099 0.000000
vt 0.025122 0.985099 0.000000
vt 0.300245 0.923677 0.000000
vt 0.300245 0.919302 0.000000
vt 0.300245 0.952824 0.000000
vt 0.300245 0.957200 0.000000
vt 0.300245 0.985099 0.000000
vt 0.322962 0.923677 0.000000
vt 0.322962 0.919302 0.000000
vt 0.322962 0.952824 0.000000
vt 0.322962 0.957200 0.000000
vt 0.322962 0.985099 0.000000
vt 0.496723 0.919302 0.000000
vt 0.496723 0.923677 0.000000
vt 0.496723 0.952824 0.000000
vt 0.496723 0.957200 0.000000
vt 0.496723 0.985099 0.000000
vt 0.012325 0.946224 0.000000
vt 0.007490 0.946224 0.000000
vt 0.007490 0.930277 0.000000
vt 0.012325 0.930277 0.000000
vt 0.009953 0.923907 0.000000
vt 0.009953 0.919072 0.000000
vt 0.009953 0.957429 0.000000
vt 0.009953 0.952594 0.000000
vt 0.012324 0.979123 0.000000
vt 0.012324 0.963176 0.000000
vt 0.715911 0.923677 0.000000
vt 0.715911 0.919302 0.000000
vt 0.968325 0.919302 0.000000
vt 0.968325 0.923677 0.000000
vt 0.715911 0.952824 0.000000
vt 0.968325 0.952824 0.000000
vt 0.715911 0.957200 0.000000
vt 0.968325 0.957200 0.000000
vt 0.715911 0.985099 0.000000
vt 0.968325 0.985099 0.000000
vt 0.693202 0.923677 0.000000
vt 0.693202 0.919302 0.000000
vt 0.693202 0.952824 0.000000
vt 0.693202 0.957200 0.000000
vt 0.693202 0.985099 0.000000
vt 0.670485 0.923677 0.000000
vt 0.670485 0.919302 0.000000
vt 0.670485 0.952824 0.000000
vt 0.670485 0.957200 0.000000
vt 0.670485 0.985099 0.000000
vt 0.981122 0.946224 0.000000
vt 0.981122 0.930277 0.000000
vt 0.985957 0.930277 0.000000
vt 0.985957 0.946224 0.000000
vt 0.983494 0.919072 0.000000
vt 0.983494 0.923907 0.000000
vt 0.983494 0.952594 0.000000
vt 0.983494 0.957429 0.000000
vt 0.981123 0.963176 0.000000
vt 0.981122 0.979123 0.000000
vt 0.942240 0.823140 0.000000
vt 0.942240 0.839749 0.000000
vt 0.758196 0.839749 0.000000
vt 0.758196 0.823140 0.000000
vt 0.942240 0.806531 0.000000
vt 0.758196 0.806531 0.000000
vt 0.942240 0.789921 0.000000
vt 0.758196 0.789921 0.000000
vt 0.942240 0.856358 0.000000
vt 0.758196 0.856358 0.000000
vt 0.758196 0.773312 0.000000
vt 0.942240 0.773312 0.000000
vt 0.758196 0.756702 0.000000
vt 0.942240 0.756702 0.000000
vt 0.942240 0.889577 0.000000
vt 0.758196 0.889577 0.000000
vt 0.758196 0.872967 0.000000
vt 0.942240 0.872967 0.000000
vt 0.939136 0.588717 0.000000
vt 0.827660 0.588717 0.000000
vt 0.827660 0.623202 0.000000
vt 0.927133 0.623202 0.000000
vt 0.827660 0.642579 0.000000
vt 0.911598 0.642579 0.000000
vt 0.827659 0.661956 0.000000
vt 0.911598 0.661958 0.000000
vt 0.827659 0.681334 0.000000
vt 0.927131 0.681336 0.000000
vt 0.827648 0.715570 0.000000
vt 0.939132 0.715571 0.000000
vt 0.932312 0.628878 0.000000
vt 0.932312 0.675660 0.000000
vt 0.968826 0.675661 0.000000
vt 0.968827 0.628878 0.000000
vt 0.779475 0.628871 0.000000
vt 0.779469 0.675653 0.000000
vt 0.813955 0.675657 0.000000
vt 0.813959 0.628875 0.000000
vt 0.951159 0.525570 0.000000
vt 0.951158 0.614579 0.000000
vt 0.988316 0.614587 0.000000
vt 0.988316 0.525572 0.000000
# 121 texture coords

g Floodlight_base
s 2
f 3/3/1 2/2/1 1/1/1
f 1/1/1 4/4/1 3/3/1
s 4
f 7/7/2 6/6/2 5/5/2
f 5/5/2 8/8/2 7/7/2
s 8
f 3/9/3 7/7/3 8/8/3
f 8/8/3 2/10/3 3/9/3
s 16
f 2/11/4 8/8/4 5/5/4
f 5/5/4 1/12/4 2/11/4
s 32
f 1/1/5 5/5/5 6/6/5
f 6/6/5 4/4/5 1/1/5
s 64
f 4/13/6 6/6/6 7/7/6
f 7/7/6 3/14/6 4/13/6
s 2
f 11/17/8 10/16/8 9/15/7
f 9/15/7 12/18/7 11/17/8
s 1
f 10/16/4 14/20/4 13/19/9
f 13/19/9 9/15/9 10/16/4
s 2
f 14/20/12 16/22/11 15/21/10
f 15/21/10 13/19/10 14/20/12
s 1
f 16/22/6 11/24/6 12/23/13
f 12/23/13 15/21/13 16/22/6
s 2
f 12/18/7 9/15/7 17/25/7
f 17/25/7 18/26/7 12/18/7
s 1
f 9/15/9 13/19/9 19/27/14
f 19/27/14 17/25/14 9/15/9
s 2
f 13/19/10 15/21/10 20/28/10
f 20/28/10 19/27/10 13/19/10
s 1
f 15/21/13 12/23/13 18/29/15
f 18/29/15 20/28/15 15/21/13
s 2
f 18/26/7 17/25/7 21/30/7
f 21/30/7 22/31/7 18/26/7
s 1
f 17/25/14 19/27/14 23/32/16
f 23/32/16 21/30/16 17/25/14
s 2
f 19/27/10 20/28/10 24/33/10
f 24/33/10 23/32/5 19/27/10
s 1
f 20/28/15 18/29/15 22/34/17
f 22/34/17 24/33/17 20/28/15
s 2
f 21/30/7 26/36/7 25/35/7
f 25/35/7 22/31/7 21/30/7
s 1
f 23/32/16 27/37/2 26/36/2
f 26/36/2 21/30/16 23/32/16
s 2
f 24/33/10 28/38/5 27/37/10
f 27/37/10 23/32/5 24/33/10
s 1
f 22/34/17 25/39/1 28/38/1
f 28/38/1 24/33/17 22/34/17
s 2
f 31/42/19 30/41/18 29/40/18
f 29/40/18 32/43/19 31/42/19
f 32/44/19 10/16/8 11/17/8
f 11/17/8 31/45/19 32/44/19
s 1
f 29/40/4 14/20/4 10/16/4
f 10/16/4 32/43/4 29/40/4
s 2
f 30/46/18 16/22/11 14/20/12
f 14/20/12 29/47/18 30/46/18
s 1
f 31/48/6 11/24/6 16/22/6
f 16/22/6 30/49/6 31/48/6
s 2
f 35/52/21 34/51/20 33/50/20
f 33/50/20 36/53/8 35/52/21
s 1
f 36/53/6 33/50/22 37/54/22
f 37/54/22 38/55/6 36/53/6
s 2
f 38/55/11 37/54/5 39/56/5
f 39/56/5 40/57/11 38/55/11
s 1
f 40/57/4 39/56/23 34/58/23
f 34/58/23 35/59/4 40/57/4
s 2
f 34/51/20 42/61/20 41/60/20
f 41/60/20 33/50/20 34/51/20
s 1
f 33/50/22 41/60/24 43/62/24
f 43/62/24 37/54/22 33/50/22
s 2
f 37/54/5 43/62/5 44/63/5
f 44/63/5 39/56/5 37/54/5
s 1
f 39/56/23 44/63/25 42/64/25
f 42/64/25 34/58/23 39/56/23
s 2
f 42/61/20 46/66/20 45/65/20
f 45/65/20 41/60/20 42/61/20
s 1
f 41/60/24 45/65/26 47/67/26
f 47/67/26 43/62/24 41/60/24
s 2
f 43/62/5 47/67/5 48/68/5
f 48/68/5 44/63/5 43/62/5
s 1
f 44/63/25 48/68/27 46/69/27
f 46/69/27 42/64/25 44/63/25
s 2
f 45/65/20 46/66/20 25/35/7
f 25/35/7 26/36/7 45/65/20
s 1
f 47/67/26 45/65/26 26/36/2
f 26/36/2 27/37/2 47/67/26
s 2
f 48/68/5 47/67/5 27/37/10
f 27/37/10 28/38/5 48/68/5
s 1
f 46/69/27 48/68/27 28/38/1
f 28/38/1 25/39/1 46/69/27
s 2
f 51/72/19 50/71/19 49/70/18
f 49/70/18 52/73/18 51/72/19
f 50/75/19 51/74/19 35/52/21
f 35/52/21 36/53/8 50/75/19
s 1
f 49/70/6 50/71/6 36/53/6
f 36/53/6 38/55/6 49/70/6
s 2
f 52/77/18 49/76/18 38/55/11
f 38/55/11 40/57/11 52/77/18
s 1
f 51/79/4 52/78/4 40/57/4
f 40/57/4 35/59/4 51/79/4
s 8
f 55/82/29 54/81/29 53/80/28
f 53/80/28 56/83/30 55/82/29
f 56/83/30 53/80/28 57/84/31
f 57/84/31 58/85/32 56/83/30
f 58/85/32 57/84/31 59/86/33
f 59/86/33 60/87/33 58/85/32
f 55/82/29 62/89/34 61/88/34
f 61/88/34 54/81/29 55/82/29
f 63/90/35 60/87/33 59/86/33
f 59/86/33 64/91/35 63/90/35
f 65/92/36 63/90/35 64/91/35
f 64/91/35 66/93/36 65/92/36
f 67/96/37 65/95/36 66/94/36
f 66/94/36 68/97/37 67/96/37
f 62/89/34 67/96/37 68/97/37
f 68/97/37 61/88/34 62/89/34
f 71/82/33 70/83/31 69/80/32
f 69/80/32 72/81/33 71/82/33
f 70/83/31 74/85/28 73/84/30
f 73/84/30 69/80/32 70/83/31
f 74/85/28 76/87/29 75/86/29
f 75/86/29 73/84/30 74/85/28
f 71/82/33 72/81/33 77/88/35
f 77/88/35 78/89/35 71/82/33
f 80/90/34 79/91/34 75/86/29
f 75/86/29 76/87/29 80/90/34
f 82/92/37 81/93/37 79/91/34
f 79/91/34 80/90/34 82/92/37
f 84/96/36 83/97/36 81/94/37
f 81/94/37 82/95/37 84/96/36
f 78/89/35 77/88/35 83/97/36
f 83/97/36 84/96/36 78/89/35
f 87/100/38 86/99/4 85/98/4
f 85/98/4 88/101/39 87/100/38
f 89/102/40 87/100/38 88/101/39
f 88/101/39 90/103/41 89/102/40
f 91/104/42 89/102/40 90/103/41
f 90/103/41 92/105/43 91/104/42
f 93/106/44 91/104/42 92/105/43
f 92/105/43 94/107/45 93/106/44
f 95/108/6 93/106/44 94/107/45
f 94/107/45 96/109/6 95/108/6
s 1
f 96/112/48 94/111/47 88/110/46
f 88/110/46 85/113/49 96/112/48
f 93/116/50 95/115/50 86/114/50
f 86/114/50 87/117/50 93/116/50
f 88/110/46 94/111/47 92/105/51
f 92/105/51 90/103/51 88/110/46
f 93/116/50 87/117/50 89/102/5
f 89/102/5 91/104/5 93/116/50
s off
f 86/120/1 95/119/1 96/118/1
f 96/118/1 85/121/1 86/120/1
s 8
f 99/100/53 98/101/52 97/98/6
f 97/98/6 100/99/6 99/100/53
f 102/102/55 101/103/54 98/101/52
f 98/101/52 99/100/53 102/102/55
f 104/104/57 103/105/56 101/103/54
f 101/103/54 102/102/55 104/104/57
f 106/106/59 105/107/58 103/105/56
f 103/105/56 104/104/57 106/106/59
f 108/108/4 107/109/4 105/107/58
f 105/107/58 106/106/59 108/108/4
s 1
f 107/112/61 97/113/49 98/110/60
f 98/110/60 105/111/62 107/112/61
f 106/116/50 99/117/50 100/114/50
f 100/114/50 108/115/50 106/116/50
f 98/110/60 101/103/51 103/105/63
f 103/105/63 105/111/62 98/110/60
f 106/116/50 104/104/5 102/102/5
f 102/102/5 99/117/50 106/116/50
s off
f 100/120/1 97/121/1 107/118/1
f 107/118/1 108/119/1 100/120/1
s 8
f 111/100/38 110/101/39 109/98/4
f 109/98/4 112/99/4 111/100/38
f 114/102/40 113/103/41 110/101/39
f 110/101/39 111/100/38 114/102/40
f 116/104/42 115/105/43 113/103/41
f 113/103/41 114/102/40 116/104/42
f 118/106/44 117/107/45 115/105/43
f 115/105/43 116/104/42 118/106/44
f 120/108/6 119/109/6 117/107/45
f 117/107/45 118/106/44 120/108/6
s 1
f 119/112/66 109/113/65 110/110/64
f 110/110/64 117/111/67 119/112/66
f 118/116/68 111/117/68 112/114/68
f 112/114/68 120/115/68 118/116/68
f 110/110/64 113/103/69 115/105/69
f 115/105/69 117/111/67 110/110/64
f 118/116/68 116/104/3 114/102/3
f 114/102/3 111/117/68 118/116/68
s off
f 112/120/1 109/121/1 119/118/1
f 119/118/1 120/119/1 112/120/1
s 8
f 123/100/53 122/99/6 121/98/6
f 121/98/6 124/101/52 123/100/53
f 125/102/55 123/100/53 124/101/52
f 124/101/52 126/103/54 125/102/55
f 127/104/57 125/102/55 126/103/54
f 126/103/54 128/105/56 127/104/57
f 129/106/59 127/104/57 128/105/56
f 128/105/56 130/107/58 129/106/59
f 131/108/4 129/106/59 130/107/58
f 130/107/58 132/109/4 131/108/4
s 1
f 132/112/72 130/111/71 124/110/70
f 124/110/70 121/113/65 132/112/72
f 129/116/68 131/115/68 122/114/68
f 122/114/68 123/117/68 129/116/68
f 124/110/70 130/111/71 128/105/73
f 128/105/73 126/103/69 124/110/70
f 129/116/68 123/117/68 125/102/3
f 125/102/3 127/104/3 129/116/68
s off
f 122/120/1 131/119/1 132/118/1
f 132/118/1 121/121/1 122/120/1
# 208 faces


